<svg aria-hidden="true" style="position: absolute; width: 0; height: 0; overflow: hidden;" version="1.1" xmlns="http://www.w3.org/2000/svg" xmlns:xlink="http://www.w3.org/1999/xlink">
<defs>
<symbol id="phone" viewBox="0 0 32 32">
<path d="M22 20c-2 2-2 4-4 4s-4-2-6-4-4-4-4-6 2-2 4-4-4-8-6-8-6 6-6 6c0 4 4.109 12.109 8 16s12 8 16 8c0 0 6-4 6-6s-6-8-8-6z"></path>
</symbol>
<symbol id="mail" viewBox="0 0 32 32">
<path d="M29 4h-26c-1.65 0-3 1.35-3 3v20c0 1.65 1.35 3 3 3h26c1.65 0 3-1.35 3-3v-20c0-1.65-1.35-3-3-3zM12.461 17.199l-8.461 6.59v-15.676l8.461 9.086zM5.512 8h20.976l-10.488 7.875-10.488-7.875zM12.79 17.553l3.21 3.447 3.21-3.447 6.58 8.447h-19.579l6.58-8.447zM19.539 17.199l8.461-9.086v15.676l-8.461-6.59z"></path>
</symbol>
<symbol id="location" viewBox="0 0 32 32">
<path d="M16 0c-5.523 0-10 4.477-10 10 0 10 10 22 10 22s10-12 10-22c0-5.523-4.477-10-10-10zM16 16c-3.314 0-6-2.686-6-6s2.686-6 6-6 6 2.686 6 6-2.686 6-6 6z"></path>
</symbol>
<symbol id="github" viewBox="0 0 32 32">
<path d="M16 0.395c-8.836 0-16 7.163-16 16 0 7.069 4.585 13.067 10.942 15.182 0.8 0.148 1.094-0.347 1.094-0.77 0-0.381-0.015-1.642-0.022-2.979-4.452 0.968-5.391-1.888-5.391-1.888-0.728-1.849-1.776-2.341-1.776-2.341-1.452-0.993 0.11-0.973 0.11-0.973 1.606 0.113 2.452 1.649 2.452 1.649 1.427 2.446 3.743 1.739 4.656 1.33 0.143-1.034 0.558-1.74 1.016-2.14-3.554-0.404-7.29-1.777-7.29-7.907 0-1.747 0.625-3.174 1.649-4.295-0.166-0.403-0.714-2.030 0.155-4.234 0 0 1.344-0.43 4.401 1.64 1.276-0.355 2.645-0.532 4.005-0.539 1.359 0.006 2.729 0.184 4.008 0.539 3.054-2.070 4.395-1.64 4.395-1.64 0.871 2.204 0.323 3.831 0.157 4.234 1.026 1.12 1.647 2.548 1.647 4.295 0 6.145-3.743 7.498-7.306 7.895 0.574 0.497 1.085 1.47 1.085 2.963 0 2.141-0.019 3.864-0.019 4.391 0 0.426 0.288 0.925 1.099 0.768 6.354-2.118 10.933-8.113 10.933-15.18 0-8.837-7.164-16-16-16z"></path>
</symbol>
<symbol id="linkedin" viewBox="0 0 32 32">
<path d="M12 12h5.535v2.837h0.079c0.77-1.381 2.655-2.837 5.464-2.837 5.842 0 6.922 3.637 6.922 8.367v9.633h-5.769v-8.54c0-2.037-0.042-4.657-3.001-4.657-3.005 0-3.463 2.218-3.463 4.509v8.688h-5.767v-18z"></path>
<path d="M2 12h6v18h-6v-18z"></path>
<path d="M8 7c0 1.657-1.343 3-3 3s-3-1.343-3-3c0-1.657 1.343-3 3-3s3 1.343 3 3z"></path>
</symbol>
<symbol id="pt_flag" viewBox="0 0 43 32">
<path fill="#f00" style="fill: var(--color1, #f00)" d="M17.067 0h25.6v32h-25.6z"></path>
<path fill="#060" style="fill: var(--color2, #060)" d="M0 0h17.067v32h-17.067z"></path>
<path fill="#ff0" style="fill: var(--color3, #ff0)" d="M22.633 20.413c-2.153-0.067-12-6.213-12.067-7.2l0.54-0.9c0.98 1.42 11.047 7.4 12.040 7.187l-0.513 0.913"></path>
<path fill="#ff0" style="fill: var(--color3, #ff0)" d="M10.993 12.187c-0.193 0.52 2.573 2.227 5.893 4.253 3.327 2.020 6.193 3.267 6.4 3.093l0.1-0.187c-0.040 0.067-0.133 0.087-0.287 0.040-0.9-0.26-3.24-1.333-6.14-3.093-2.907-1.76-5.427-3.38-5.82-4.067-0.026-0.053-0.041-0.115-0.041-0.181 0-0.009 0-0.018 0.001-0.027l-0 0.001h-0.013l-0.080 0.147-0.013 0.020zM22.68 20.44c-0.033 0.067-0.107 0.067-0.233 0.053-0.8-0.087-3.24-1.273-6.127-3-3.36-2.013-6.133-3.84-5.827-4.32l0.080-0.147 0.013 0.007c-0.267 0.813 5.473 4.093 5.813 4.307 3.32 2.053 6.12 3.26 6.367 2.947l-0.087 0.153z"></path>
<path fill="#ff0" style="fill: var(--color3, #ff0)" d="M17.080 13.813c2.147-0.020 4.8-0.293 6.333-0.907l-0.333-0.533c-0.9 0.5-3.567 0.833-6.020 0.88-2.893-0.027-4.94-0.3-5.967-0.987l-0.307 0.573c1.88 0.8 3.813 0.967 6.293 0.973"></path>
<path fill="#ff0" style="fill: var(--color3, #ff0)" d="M23.5 12.92c-0.053 0.087-1.053 0.427-2.52 0.68-1.144 0.183-2.464 0.287-3.808 0.287-0.035 0-0.070-0-0.104-0l0.005 0c-0.031 0-0.067 0-0.104 0-1.284 0-2.548-0.087-3.787-0.256l0.144 0.016c-1.54-0.24-2.333-0.573-2.633-0.693l0.073-0.147c0.847 0.333 1.647 0.533 2.58 0.68 1.103 0.157 2.376 0.247 3.671 0.247 0.017 0 0.035-0 0.052-0h-0.003c0.008 0 0.018 0 0.027 0 1.362 0 2.699-0.104 4.005-0.305l-0.146 0.018c1.5-0.247 2.32-0.56 2.44-0.7l0.107 0.18zM23.207 12.38c-0.16 0.133-0.973 0.42-2.4 0.647-1.114 0.17-2.398 0.267-3.706 0.267-0.005 0-0.010 0-0.015 0h0.001c-1.467 0-2.673-0.107-3.587-0.24-1.453-0.187-2.227-0.533-2.507-0.627l0.087-0.147c0.22 0.113 0.96 0.413 2.433 0.62 1.024 0.145 2.206 0.227 3.408 0.227 0.058 0 0.117-0 0.175-0.001l-0.009 0c0.002 0 0.005 0 0.008 0 1.3 0 2.578-0.097 3.826-0.284l-0.141 0.017c1.433-0.2 2.207-0.56 2.327-0.653l0.1 0.173z"></path>
<path fill="#ff0" style="fill: var(--color3, #ff0)" d="M24.187 16.3v0.167c-0.187 0.227-1.347 0.56-2.8 0.8-1.237 0.187-2.664 0.294-4.117 0.294-0.086 0-0.171-0-0.256-0.001l0.013 0c-0.068 0.001-0.147 0.001-0.227 0.001-1.378 0-2.732-0.105-4.054-0.306l0.148 0.019c-1.097-0.13-2.098-0.412-3.026-0.826l0.066 0.026v-0.193c0.647 0.427 2.393 0.747 2.98 0.84 1.053 0.16 2.407 0.28 4.113 0.28 1.793 0 3.227-0.127 4.333-0.293 1.047-0.153 2.533-0.547 2.827-0.807zM24.187 15.7v0.167c-0.187 0.22-1.347 0.553-2.8 0.793-1.25 0.191-2.693 0.301-4.16 0.301-0.070 0-0.14-0-0.21-0.001l0.011 0c-0.048 0-0.105 0-0.162 0-1.401 0-2.778-0.104-4.123-0.306l0.152 0.019c-1.097-0.13-2.098-0.412-3.026-0.826l0.066 0.026v-0.2c0.647 0.433 2.4 0.747 2.98 0.84 1.185 0.183 2.551 0.287 3.942 0.287 0.060 0 0.12-0 0.18-0.001l-0.009 0c1.793 0 3.233-0.133 4.333-0.3 1.047-0.147 2.533-0.54 2.827-0.8z"></path>
<path fill="#ff0" style="fill: var(--color3, #ff0)" d="M22.993 19.82c-0.081 0.121-0.143 0.208-0.205 0.293l0.019-0.027c-0.667 0.24-1.733 0.493-2.173 0.56-1.075 0.21-2.313 0.331-3.578 0.333h-0.002c-2.693-0.040-4.9-0.567-5.933-1.020l-0.087-0.14 0.013-0.027 0.14 0.060c1.753 0.6 3.773 0.953 5.873 0.967l0.006 0c1.253 0 2.5-0.14 3.507-0.32 1.547-0.313 2.173-0.547 2.367-0.653l0.047-0.027zM23.347 19.233c-0.093 0.171-0.137 0.247-0.182 0.323l0.049-0.090c-0.36 0.133-1.333 0.413-2.753 0.613-0.933 0.127-1.513 0.253-3.373 0.287-2.246-0.023-4.404-0.363-6.444-0.976l0.164 0.042-0.073-0.167c1.894 0.545 4.077 0.882 6.331 0.933l0.029 0.001c1.7-0.033 2.427-0.16 3.353-0.287 1.653-0.253 2.487-0.533 2.733-0.607 0-0.002 0-0.004 0-0.007s-0-0.005-0-0.007v0l0.173-0.067z"></path>
<path fill="#ff0" style="fill: var(--color3, #ff0)" d="M23.387 15.84c0.007 2-1.020 3.8-1.84 4.587-1.168 1.14-2.758 1.852-4.515 1.88l-0.005 0c-2.020 0.033-3.92-1.28-4.433-1.86-1.108-1.173-1.8-2.749-1.833-4.487l-0-0.007c0.12-2.187 0.98-3.707 2.22-4.753 1.138-0.942 2.612-1.514 4.22-1.514 0.021 0 0.042 0 0.063 0l-0.003-0c1.909 0.095 3.59 0.994 4.725 2.362l0.009 0.011c0.833 1.013 1.2 2.113 1.393 3.78z"></path>
<path fill="#ff0" style="fill: var(--color3, #ff0)" d="M17.060 8.967c3.88 0 7.040 3.16 7.040 7.040s-3.16 7.040-7.033 7.040-7.040-3.16-7.040-7.040c0-3.88 3.16-7.040 7.040-7.040zM10.173 16c0 3.787 3.113 6.887 6.887 6.887s6.887-3.1 6.887-6.887-3.113-6.887-6.887-6.887-6.887 3.1-6.887 6.887z"></path>
<path fill="#ff0" style="fill: var(--color3, #ff0)" d="M17.067 9.553c3.556 0.011 6.435 2.891 6.447 6.446v0.001c-0.011 3.557-2.89 6.438-6.445 6.453h-0.001c-3.533 0-6.447-2.907-6.447-6.453 0.015-3.554 2.892-6.432 6.445-6.447h0.001zM10.773 16c0 3.467 2.84 6.293 6.293 6.293s6.293-2.833 6.293-6.293c0-3.467-2.84-6.293-6.293-6.293-3.47 0.015-6.278 2.824-6.293 6.292v0.001z"></path>
<path fill="#ff0" style="fill: var(--color3, #ff0)" d="M17.353 8.933h-0.607v14.153h0.6z"></path>
<path fill="#ff0" style="fill: var(--color3, #ff0)" d="M17.287 8.853h0.153v14.313h-0.147v-14.313zM16.687 8.853h0.16v14.313h-0.153v-14.313z"></path>
<path fill="#ff0" style="fill: var(--color3, #ff0)" d="M24.107 16.28v-0.52l-0.427-0.4-2.42-0.64-3.48-0.353-4.2 0.213-2.987 0.707-0.6 0.447v0.527l1.527-0.687 3.627-0.567h3.487l2.56 0.28 1.773 0.427z"></path>
<path fill="#ff0" style="fill: var(--color3, #ff0)" d="M17.067 14.92c1.66 0 3.267 0.153 4.553 0.4 1.32 0.267 2.247 0.6 2.567 0.967v0.187c-0.387-0.467-1.633-0.8-2.6-1-1.267-0.24-2.867-0.4-4.527-0.4-1.74 0-3.367 0.173-4.62 0.413-1 0.2-2.34 0.6-2.507 0.987v-0.193c0.087-0.267 1.087-0.667 2.487-0.953 1.26-0.247 2.887-0.407 4.64-0.407zM17.067 14.313c0.015-0 0.033-0 0.051-0 1.591 0 3.148 0.146 4.659 0.424l-0.157-0.024c1.32 0.267 2.247 0.6 2.567 0.973v0.18c-0.387-0.46-1.633-0.8-2.6-0.993-1.267-0.247-2.867-0.4-4.527-0.4-0.024-0-0.051-0-0.079-0-1.603 0-3.171 0.15-4.69 0.438l0.156-0.025c-0.967 0.18-2.36 0.593-2.513 0.98v-0.187c0.093-0.267 1.107-0.687 2.487-0.953 1.267-0.247 2.887-0.413 4.647-0.413z"></path>
<path fill="#ff0" style="fill: var(--color3, #ff0)" d="M17.067 11.78c0.118-0.002 0.258-0.003 0.398-0.003 1.302 0 2.58 0.105 3.825 0.308l-0.136-0.018c1.067 0.2 2.087 0.493 2.233 0.653l0.113 0.2c-0.353-0.227-1.24-0.487-2.373-0.7s-2.58-0.287-4.067-0.28c-1.687-0.007-3 0.080-4.12 0.28-0.828 0.119-1.576 0.359-2.262 0.706l0.042-0.019 0.113-0.207c0.4-0.2 1.020-0.447 2.073-0.64 1.167-0.213 2.493-0.273 4.16-0.28zM17.067 11.18c1.427-0.013 2.84 0.067 3.94 0.267 0.763 0.116 1.449 0.349 2.074 0.683l-0.034-0.017 0.167 0.267c-0.28-0.313-1.333-0.613-2.273-0.773-1.093-0.193-2.447-0.267-3.873-0.28-0.064-0.001-0.139-0.001-0.215-0.001-1.325 0-2.624 0.107-3.891 0.313l0.139-0.019c-0.736 0.105-1.401 0.318-2.011 0.624l0.037-0.017 0.147-0.22c0.387-0.2 1.013-0.387 1.8-0.54 1.122-0.188 2.416-0.295 3.734-0.295 0.091 0 0.182 0.001 0.273 0.002l-0.014-0z"></path>
<path fill="#ff0" style="fill: var(--color3, #ff0)" d="M17.040 18.593c1.213 0.020 2.4 0.067 3.553 0.28l-0.080 0.147c-1.067-0.2-2.213-0.267-3.467-0.267-1.62-0.013-3.247 0.14-4.667 0.547-0.447 0.127-1.187 0.413-1.267 0.653l-0.080-0.133c0.027-0.147 0.467-0.44 1.307-0.667 1.627-0.467 3.147-0.553 4.7-0.56zM17.093 17.98c0.007 0 0.014 0 0.022 0 1.342 0 2.656 0.121 3.931 0.354l-0.133-0.020-0.087 0.153c-1.081-0.208-2.325-0.327-3.596-0.327-0.048 0-0.096 0-0.144 0l0.007-0c-1.613 0-3.327 0.12-4.887 0.573-0.5 0.147-1.373 0.467-1.4 0.713l-0.080-0.147c0.013-0.227 0.767-0.527 1.447-0.72 1.567-0.46 3.287-0.573 4.92-0.58z"></path>
<path fill="#ff0" style="fill: var(--color3, #ff0)" d="M23.293 19.367l-0.52 0.82-1.513-1.34-3.907-2.633-4.413-2.42-2.287-0.78 0.487-0.907 0.167-0.087 1.42 0.353 4.693 2.42 2.707 1.707 2.273 1.633 0.927 1.067z"></path>
<path fill="#ff0" style="fill: var(--color3, #ff0)" d="M10.573 13.033c0.4-0.267 3.347 1.040 6.44 2.907 3.073 1.867 6.020 3.973 5.753 4.367l-0.087 0.14-0.040 0.033c0.007-0.007 0.053-0.067 0-0.207-0.133-0.433-2.227-2.1-5.687-4.193-3.38-2.007-6.193-3.22-6.467-2.873l0.087-0.173zM23.4 19.36c0.253-0.507-2.48-2.567-5.873-4.573-3.467-1.967-5.973-3.127-6.433-2.78l-0.093 0.193c0 0.007 0-0.013 0.027-0.033 0.080-0.067 0.22-0.067 0.28-0.067 0.787 0.013 3.033 1.047 6.187 2.853 1.387 0.8 5.84 3.667 5.82 4.467 0 0.067 0.007 0.080-0.020 0.12l0.113-0.173z"></path>
<path fill="#fff" style="fill: var(--color4, #fff)" d="M12.843 16.785c0.002 1.161 0.478 2.21 1.244 2.965l0.001 0c0.758 0.769 1.809 1.247 2.972 1.252h0.001c1.166-0 2.222-0.473 2.987-1.237v0c0.764-0.759 1.237-1.811 1.237-2.972v-5.632l-8.441-0.014v5.639z"></path>
<path fill="#f00" style="fill: var(--color1, #f00)" d="M12.999 16.792c0.003 1.113 0.46 2.119 1.194 2.844l0 0c0.731 0.735 1.741 1.19 2.858 1.195h0.001c0.001 0 0.001 0 0.002 0 1.115 0 2.125-0.451 2.857-1.181l-0 0c0.732-0.726 1.186-1.732 1.188-2.844v-5.476h-8.085v5.461M19.485 12.973v3.477l-0.007 0.363c0 0.005 0 0.012 0 0.018 0 0.662-0.272 1.26-0.711 1.688l-0 0c-0.436 0.438-1.040 0.709-1.706 0.711h-0c-0.668 0-1.259-0.284-1.7-0.725-0.438-0.436-0.709-1.040-0.711-1.706v-3.84l4.836 0.014z"></path>
<path fill="#ff0" style="fill: var(--color3, #ff0)" d="M13.525 12.76c0.007-0.391 0.284-0.484 0.284-0.484 0.007 0 0.306 0.1 0.306 0.491h-0.59z"></path>
<path fill="#ff0" style="fill: var(--color3, #ff0)" d="M13.284 12.283l-0.050 0.448h0.299c0-0.37 0.284-0.427 0.284-0.427 0.007 0 0.284 0.078 0.292 0.427h0.299l-0.057-0.455h-1.067zM13.213 12.738h1.209c0.021 0 0.043 0.021 0.043 0.050 0 0.036-0.021 0.057-0.043 0.057h-1.209c-0.021 0-0.043-0.021-0.043-0.057 0-0.028 0.021-0.050 0.050-0.050z"></path>
<path fill="#ff0" style="fill: var(--color3, #ff0)" d="M13.653 12.731c0-0.235 0.164-0.299 0.164-0.299s0.164 0.071 0.164 0.299h-0.327M13.241 12.091h1.159c0.021 0 0.043 0.028 0.043 0.057 0 0.021-0.021 0.043-0.043 0.043h-1.159c-0.021 0-0.043-0.021-0.043-0.050 0-0.021 0.021-0.043 0.043-0.043zM13.269 12.198h1.095c0.021 0 0.043 0.021 0.043 0.050s-0.021 0.050-0.043 0.050h-1.102c-0.028 0-0.043-0.021-0.043-0.050s0.014-0.050 0.043-0.050zM13.625 11.444h0.085v0.057h0.064v-0.057h0.092v0.064h0.064v-0.071h0.085v0.142c0 0.028-0.014 0.043-0.036 0.043h-0.313c-0.021 0-0.043-0.014-0.043-0.036v-0.142zM13.952 11.636l0.021 0.455h-0.306l0.021-0.462h0.263"></path>
<path fill="#ff0" style="fill: var(--color3, #ff0)" d="M13.582 11.849v0.242h-0.284v-0.242h0.284z"></path>
<path fill="#ff0" style="fill: var(--color3, #ff0)" d="M14.336 11.849v0.242h-0.284v-0.242h0.284z"></path>
<path fill="#ff0" style="fill: var(--color3, #ff0)" d="M13.248 11.664h0.085v0.071h0.064v-0.071h0.085v0.071h0.064v-0.071h0.085v0.142c0 0.028-0.014 0.043-0.036 0.043h-0.306c-0.024 0-0.043-0.019-0.043-0.043v0-0.142z"></path>
<path fill="#ff0" style="fill: var(--color3, #ff0)" d="M14.002 11.664h0.085v0.071h0.064v-0.071h0.085v0.071h0.064v-0.071h0.085v0.142c0 0.028-0.014 0.043-0.036 0.043h-0.306c-0.024 0-0.043-0.019-0.043-0.043v0-0.142z"></path>
<path fill="#000" style="fill: var(--color5, #000)" d="M13.789 11.778c0-0.043 0.064-0.043 0.064 0v0.114h-0.064v-0.114z"></path>
<path fill="#000" style="fill: var(--color5, #000)" d="M13.412 11.935c0-0.043 0.057-0.043 0.057 0v0.085h-0.057v-0.085z"></path>
<path fill="#000" style="fill: var(--color5, #000)" d="M14.165 11.935c0-0.043 0.057-0.043 0.057 0v0.085h-0.057v-0.085z"></path>
<path fill="#ff0" style="fill: var(--color3, #ff0)" d="M13.525 16.052c0.007-0.391 0.284-0.484 0.284-0.484 0.007 0 0.306 0.1 0.306 0.491h-0.59z"></path>
<path fill="#ff0" style="fill: var(--color3, #ff0)" d="M13.284 15.576l-0.050 0.448h0.299c0-0.37 0.284-0.427 0.284-0.427 0.007 0 0.284 0.078 0.292 0.427h0.299l-0.057-0.455h-1.067zM13.213 16.031h1.209c0.021 0 0.043 0.021 0.043 0.050 0 0.036-0.021 0.057-0.043 0.057h-1.209c-0.021 0-0.043-0.021-0.043-0.057 0-0.028 0.021-0.050 0.050-0.050z"></path>
<path fill="#ff0" style="fill: var(--color3, #ff0)" d="M13.653 16.024c0-0.235 0.164-0.299 0.164-0.299s0.164 0.071 0.164 0.299h-0.327M13.241 15.384h1.159c0.021 0 0.043 0.028 0.043 0.057 0 0.021-0.021 0.043-0.043 0.043h-1.159c-0.021 0-0.043-0.021-0.043-0.050 0-0.021 0.021-0.043 0.043-0.043zM13.269 15.49h1.095c0.021 0 0.043 0.021 0.043 0.050s-0.021 0.050-0.043 0.050h-1.102c-0.028 0-0.043-0.021-0.043-0.050s0.014-0.050 0.043-0.050zM13.625 14.736h0.085v0.057h0.064v-0.057h0.092v0.064h0.064v-0.071h0.085v0.142c0 0.028-0.014 0.043-0.036 0.043h-0.313c-0.021 0-0.043-0.014-0.043-0.036v-0.142zM13.952 14.928l0.021 0.455h-0.306l0.021-0.462h0.263"></path>
<path fill="#ff0" style="fill: var(--color3, #ff0)" d="M13.582 15.142v0.242h-0.284v-0.242h0.284z"></path>
<path fill="#ff0" style="fill: var(--color3, #ff0)" d="M15.090 15.142v0.242h-0.284v-0.242h0.284z"></path>
<path fill="#ff0" style="fill: var(--color3, #ff0)" d="M13.248 14.957h0.085v0.071h0.064v-0.071h0.085v0.071h0.064v-0.071h0.085v0.142c0 0.028-0.014 0.043-0.036 0.043h-0.306c-0.024 0-0.043-0.019-0.043-0.043v0-0.142z"></path>
<path fill="#ff0" style="fill: var(--color3, #ff0)" d="M14.756 14.957h0.085v0.071h0.064v-0.071h0.085v0.071h0.064v-0.071h0.085v0.142c0 0.028-0.014 0.043-0.036 0.043h-0.306c-0.024 0-0.043-0.019-0.043-0.043v0-0.142z"></path>
<path fill="#000" style="fill: var(--color5, #000)" d="M13.789 15.071c0-0.043 0.064-0.043 0.064 0v0.114h-0.064v-0.114z"></path>
<path fill="#000" style="fill: var(--color5, #000)" d="M13.412 15.227c0-0.043 0.057-0.043 0.057 0v0.085h-0.057v-0.085z"></path>
<path fill="#000" style="fill: var(--color5, #000)" d="M14.919 15.227c0-0.043 0.057-0.043 0.057 0v0.085h-0.057v-0.085z"></path>
<path fill="#ff0" style="fill: var(--color3, #ff0)" d="M14.809 19.483c-0.273-0.281-0.143-0.543-0.143-0.543 0.005-0.005 0.286-0.147 0.564 0.129l-0.416 0.419z"></path>
<path fill="#ff0" style="fill: var(--color3, #ff0)" d="M14.3 19.319l0.283 0.351 0.21-0.212c-0.262-0.261-0.102-0.502-0.102-0.502 0.005-0.005 0.256-0.147 0.508 0.094l0.21-0.212-0.363-0.28-0.752 0.757zM14.573 19.691l0.852-0.858c0.015-0.015 0.045-0.015 0.065 0.005 0.025 0.025 0.025 0.055 0.010 0.070l-0.852 0.858c-0.015 0.015-0.045 0.015-0.070-0.010-0.020-0.020-0.020-0.050-0-0.070z"></path>
<path fill="#ff0" style="fill: var(--color3, #ff0)" d="M14.879 19.373c-0.166-0.165-0.097-0.326-0.097-0.326s0.166-0.066 0.327 0.094l-0.23 0.232M14.134 19.214l0.817-0.822c0.015-0.015 0.050-0.010 0.070 0.010 0.015 0.015 0.015 0.045 0 0.060l-0.817 0.822c-0.015 0.015-0.045 0.015-0.065-0.005-0.015-0.015-0.015-0.045-0-0.060zM14.23 19.269l0.772-0.777c0.015-0.015 0.045-0.015 0.065 0.005s0.020 0.050 0.005 0.065l-0.777 0.782c-0.020 0.020-0.045 0.015-0.065-0.005s-0.025-0.045-0.005-0.065zM13.945 18.486l0.060-0.061 0.040 0.040 0.045-0.045-0.040-0.040 0.065-0.066 0.045 0.045 0.045-0.045-0.050-0.050 0.060-0.061 0.101 0.1c0.020 0.020 0.020 0.040 0.005 0.055l-0.22 0.222c-0.015 0.015-0.040 0.020-0.055 0.005l-0.101-0.1zM14.312 18.389l0.338 0.306-0.215 0.217-0.313-0.341 0.185-0.187"></path>
<path fill="#ff0" style="fill: var(--color3, #ff0)" d="M14.203 18.802l0.172 0.17-0.2 0.202-0.172-0.17 0.2-0.202z"></path>
<path fill="#ff0" style="fill: var(--color3, #ff0)" d="M15.265 17.732l0.172 0.17-0.2 0.202-0.172-0.17 0.2-0.202z"></path>
<path fill="#ff0" style="fill: var(--color3, #ff0)" d="M13.836 18.909l0.060-0.061 0.050 0.050 0.045-0.045-0.050-0.050 0.060-0.061 0.050 0.050 0.045-0.045-0.050-0.050 0.060-0.061 0.101 0.1c0.020 0.020 0.020 0.040 0.005 0.055l-0.215 0.217c-0.017 0.017-0.044 0.017-0.060 0v0l-0.101-0.1z"></path>
<path fill="#ff0" style="fill: var(--color3, #ff0)" d="M14.899 17.839l0.060-0.061 0.050 0.050 0.045-0.045-0.050-0.050 0.060-0.061 0.050 0.050 0.045-0.045-0.050-0.050 0.060-0.061 0.101 0.1c0.020 0.020 0.020 0.040 0.005 0.055l-0.215 0.217c-0.017 0.017-0.044 0.017-0.060 0v0l-0.101-0.1z"></path>
<path fill="#000" style="fill: var(--color5, #000)" d="M14.298 18.605c-0.030-0.030 0.015-0.075 0.045-0.045l0.081 0.080-0.045 0.045-0.081-0.080z"></path>
<path fill="#000" style="fill: var(--color5, #000)" d="M14.143 18.983c-0.030-0.030 0.010-0.070 0.040-0.040l0.061 0.060-0.040 0.040-0.061-0.060z"></path>
<path fill="#000" style="fill: var(--color5, #000)" d="M15.206 17.913c-0.030-0.030 0.010-0.070 0.040-0.040l0.061 0.060-0.040 0.040-0.061-0.060z"></path>
<path fill="#ff0" style="fill: var(--color3, #ff0)" d="M16.775 12.76c0.007-0.391 0.284-0.484 0.284-0.484 0.007 0 0.306 0.1 0.306 0.491h-0.59z"></path>
<path fill="#ff0" style="fill: var(--color3, #ff0)" d="M16.533 12.283l-0.050 0.448h0.299c0-0.37 0.284-0.427 0.284-0.427 0.007 0 0.284 0.078 0.292 0.427h0.299l-0.057-0.455h-1.067zM16.462 12.738h1.209c0.021 0 0.043 0.021 0.043 0.050 0 0.036-0.021 0.057-0.043 0.057h-1.209c-0.021 0-0.043-0.021-0.043-0.057 0-0.028 0.021-0.050 0.050-0.050z"></path>
<path fill="#ff0" style="fill: var(--color3, #ff0)" d="M16.903 12.731c0-0.235 0.164-0.299 0.164-0.299s0.164 0.071 0.164 0.299h-0.327M16.491 12.091h1.159c0.021 0 0.043 0.028 0.043 0.057 0 0.021-0.021 0.043-0.043 0.043h-1.159c-0.021 0-0.043-0.021-0.043-0.050 0-0.021 0.021-0.043 0.043-0.043zM16.519 12.198h1.095c0.021 0 0.043 0.021 0.043 0.050s-0.021 0.050-0.043 0.050h-1.102c-0.028 0-0.043-0.021-0.043-0.050s0.014-0.050 0.043-0.050zM16.875 11.444h0.085v0.057h0.064v-0.057h0.092v0.064h0.064v-0.071h0.085v0.142c0 0.028-0.014 0.043-0.036 0.043h-0.313c-0.021 0-0.043-0.014-0.043-0.036v-0.142zM17.202 11.636l0.021 0.455h-0.306l0.021-0.462h0.263"></path>
<path fill="#ff0" style="fill: var(--color3, #ff0)" d="M16.832 11.849v0.242h-0.284v-0.242h0.284z"></path>
<path fill="#ff0" style="fill: var(--color3, #ff0)" d="M18.34 11.849v0.242h-0.284v-0.242h0.284z"></path>
<path fill="#ff0" style="fill: var(--color3, #ff0)" d="M16.498 11.664h0.085v0.071h0.064v-0.071h0.085v0.071h0.064v-0.071h0.085v0.142c0 0.028-0.014 0.043-0.036 0.043h-0.306c-0.024 0-0.043-0.019-0.043-0.043v0-0.142z"></path>
<path fill="#ff0" style="fill: var(--color3, #ff0)" d="M18.005 11.664h0.085v0.071h0.064v-0.071h0.085v0.071h0.064v-0.071h0.085v0.142c0 0.028-0.014 0.043-0.036 0.043h-0.306c-0.024 0-0.043-0.019-0.043-0.043v0-0.142z"></path>
<path fill="#000" style="fill: var(--color5, #000)" d="M17.038 11.778c0-0.043 0.064-0.043 0.064 0v0.114h-0.064v-0.114z"></path>
<path fill="#000" style="fill: var(--color5, #000)" d="M16.661 11.935c0-0.043 0.057-0.043 0.057 0v0.085h-0.057v-0.085z"></path>
<path fill="#000" style="fill: var(--color5, #000)" d="M18.169 11.935c0-0.043 0.057-0.043 0.057 0v0.085h-0.057v-0.085z"></path>
<path fill="#ff0" style="fill: var(--color3, #ff0)" d="M20.594 12.76c-0.007-0.391-0.284-0.484-0.284-0.484-0.007 0-0.306 0.1-0.306 0.491h0.59z"></path>
<path fill="#ff0" style="fill: var(--color3, #ff0)" d="M20.836 12.283l0.050 0.448h-0.299c0-0.37-0.284-0.427-0.284-0.427-0.007 0-0.284 0.078-0.292 0.427h-0.299l0.057-0.455h1.067zM20.907 12.738h-1.209c-0.021 0-0.043 0.021-0.043 0.050 0 0.036 0.021 0.057 0.043 0.057h1.209c0.021 0 0.043-0.021 0.043-0.057 0-0.028-0.021-0.050-0.050-0.050z"></path>
<path fill="#ff0" style="fill: var(--color3, #ff0)" d="M20.466 12.731c0-0.235-0.164-0.299-0.164-0.299s-0.164 0.071-0.164 0.299h0.327M20.878 12.091h-1.159c-0.021 0-0.043 0.028-0.043 0.057 0 0.021 0.021 0.043 0.043 0.043h1.159c0.021 0 0.043-0.021 0.043-0.050 0-0.021-0.021-0.043-0.043-0.043zM20.85 12.198h-1.095c-0.021 0-0.043 0.021-0.043 0.050s0.021 0.050 0.043 0.050h1.102c0.028 0 0.043-0.021 0.043-0.050s-0.014-0.050-0.043-0.050zM20.494 11.444h-0.085v0.057h-0.064v-0.057h-0.092v0.064h-0.064v-0.071h-0.085v0.142c0 0.028 0.014 0.043 0.036 0.043h0.313c0.021 0 0.043-0.014 0.043-0.036v-0.142zM20.167 11.636l-0.021 0.455h0.306l-0.021-0.462h-0.263"></path>
<path fill="#ff0" style="fill: var(--color3, #ff0)" d="M20.537 11.849v0.242h0.284v-0.242h-0.284z"></path>
<path fill="#ff0" style="fill: var(--color3, #ff0)" d="M19.029 11.849v0.242h0.284v-0.242h-0.284z"></path>
<path fill="#ff0" style="fill: var(--color3, #ff0)" d="M20.871 11.664h-0.085v0.071h-0.064v-0.071h-0.085v0.071h-0.064v-0.071h-0.085v0.142c0 0.028 0.014 0.043 0.036 0.043h0.306c0.024 0 0.043-0.019 0.043-0.043v0-0.142z"></path>
<path fill="#ff0" style="fill: var(--color3, #ff0)" d="M19.364 11.664h-0.085v0.071h-0.064v-0.071h-0.085v0.071h-0.064v-0.071h-0.085v0.142c0 0.028 0.014 0.043 0.036 0.043h0.306c0.024 0 0.043-0.019 0.043-0.043v0-0.142z"></path>
<path fill="#000" style="fill: var(--color5, #000)" d="M20.331 11.778c0-0.043-0.064-0.043-0.064 0v0.114h0.064v-0.114z"></path>
<path fill="#000" style="fill: var(--color5, #000)" d="M20.708 11.935c0-0.043-0.057-0.043-0.057 0v0.085h0.057v-0.085z"></path>
<path fill="#000" style="fill: var(--color5, #000)" d="M19.2 11.935c0-0.043-0.057-0.043-0.057 0v0.085h0.057v-0.085z"></path>
<path fill="#ff0" style="fill: var(--color3, #ff0)" d="M20.537 18.434v0.242h0.284v-0.242h-0.284z"></path>
<path fill="#ff0" style="fill: var(--color3, #ff0)" d="M19.364 18.249h-0.085v0.071h-0.064v-0.071h-0.085v0.071h-0.064v-0.071h-0.085v0.142c0 0.028 0.014 0.043 0.036 0.043h0.306c0.024 0 0.043-0.019 0.043-0.043v0-0.142z"></path>
<path fill="#000" style="fill: var(--color5, #000)" d="M20.331 18.363c0-0.043-0.064-0.043-0.064 0v0.114h0.064v-0.114z"></path>
<path fill="#000" style="fill: var(--color5, #000)" d="M20.708 18.52c0-0.043-0.057-0.043-0.057 0v0.085h0.057v-0.085z"></path>
<path fill="#000" style="fill: var(--color5, #000)" d="M19.2 18.52c0-0.043-0.057-0.043-0.057 0v0.085h0.057v-0.085z"></path>
<path fill="#ff0" style="fill: var(--color3, #ff0)" d="M19.916 18.802l-0.172 0.17 0.2 0.202 0.172-0.17-0.2-0.202z"></path>
<path fill="#ff0" style="fill: var(--color3, #ff0)" d="M19.221 17.839l-0.060-0.061-0.050 0.050-0.045-0.045 0.050-0.050-0.060-0.061-0.050 0.050-0.045-0.045 0.050-0.050-0.060-0.061-0.101 0.1c-0.020 0.020-0.020 0.040-0.005 0.055l0.215 0.217c0.017 0.017 0.044 0.017 0.060 0v0l0.101-0.1z"></path>
<path fill="#000" style="fill: var(--color5, #000)" d="M19.821 18.605c0.030-0.030-0.015-0.075-0.045-0.045l-0.081 0.080 0.045 0.045 0.081-0.080z"></path>
<path fill="#000" style="fill: var(--color5, #000)" d="M19.976 18.983c0.030-0.030-0.010-0.070-0.040-0.040l-0.061 0.060 0.040 0.040 0.061-0.060z"></path>
<path fill="#000" style="fill: var(--color5, #000)" d="M18.914 17.913c0.030-0.030-0.010-0.070-0.040-0.040l-0.061 0.060 0.040 0.040 0.061-0.060z"></path>
<path fill="#039" style="fill: var(--color6, #039)" d="M16.541 16.173c0 0.002-0 0.003-0 0.005 0 0.155 0.059 0.295 0.157 0.401l-0-0c0.093 0.104 0.227 0.169 0.377 0.171h0c0.149 0 0.284-0.071 0.377-0.171 0.097-0.105 0.156-0.246 0.156-0.4 0-0.002 0-0.004-0-0.005v0-0.768h-1.067v0.768z"></path>
<path fill="#fff" style="fill: var(--color4, #fff)" d="M16.896 15.697c0 0.059-0.048 0.107-0.107 0.107s-0.107-0.048-0.107-0.107c0-0.059 0.048-0.107 0.107-0.107s0.107 0.048 0.107 0.107z"></path>
<path fill="#fff" style="fill: var(--color4, #fff)" d="M17.486 15.697c0 0.059-0.048 0.107-0.107 0.107s-0.107-0.048-0.107-0.107c0-0.059 0.048-0.107 0.107-0.107s0.107 0.048 0.107 0.107z"></path>
<path fill="#fff" style="fill: var(--color4, #fff)" d="M17.188 15.981c0 0.059-0.048 0.107-0.107 0.107s-0.107-0.048-0.107-0.107c0-0.059 0.048-0.107 0.107-0.107s0.107 0.048 0.107 0.107z"></path>
<path fill="#fff" style="fill: var(--color4, #fff)" d="M16.896 16.28c0 0.059-0.048 0.107-0.107 0.107s-0.107-0.048-0.107-0.107c0-0.059 0.048-0.107 0.107-0.107s0.107 0.048 0.107 0.107z"></path>
<path fill="#fff" style="fill: var(--color4, #fff)" d="M17.486 16.28c0 0.059-0.048 0.107-0.107 0.107s-0.107-0.048-0.107-0.107c0-0.059 0.048-0.107 0.107-0.107s0.107 0.048 0.107 0.107z"></path>
<path fill="#039" style="fill: var(--color6, #039)" d="M16.541 14.324c0 0.002-0 0.003-0 0.005 0 0.155 0.059 0.295 0.157 0.401l-0-0c0.093 0.104 0.227 0.169 0.377 0.171h0c0.149 0 0.284-0.071 0.377-0.171 0.097-0.105 0.156-0.246 0.156-0.4 0-0.002 0-0.004-0-0.005v0-0.768h-1.067v0.768z"></path>
<path fill="#fff" style="fill: var(--color4, #fff)" d="M16.896 13.848c0 0.059-0.048 0.107-0.107 0.107s-0.107-0.048-0.107-0.107c0-0.059 0.048-0.107 0.107-0.107s0.107 0.048 0.107 0.107z"></path>
<path fill="#fff" style="fill: var(--color4, #fff)" d="M17.486 13.848c0 0.059-0.048 0.107-0.107 0.107s-0.107-0.048-0.107-0.107c0-0.059 0.048-0.107 0.107-0.107s0.107 0.048 0.107 0.107z"></path>
<path fill="#fff" style="fill: var(--color4, #fff)" d="M17.188 14.132c0 0.059-0.048 0.107-0.107 0.107s-0.107-0.048-0.107-0.107c0-0.059 0.048-0.107 0.107-0.107s0.107 0.048 0.107 0.107z"></path>
<path fill="#fff" style="fill: var(--color4, #fff)" d="M16.896 14.431c0 0.059-0.048 0.107-0.107 0.107s-0.107-0.048-0.107-0.107c0-0.059 0.048-0.107 0.107-0.107s0.107 0.048 0.107 0.107z"></path>
<path fill="#fff" style="fill: var(--color4, #fff)" d="M17.486 14.431c0 0.059-0.048 0.107-0.107 0.107s-0.107-0.048-0.107-0.107c0-0.059 0.048-0.107 0.107-0.107s0.107 0.048 0.107 0.107z"></path>
<path fill="#039" style="fill: var(--color6, #039)" d="M15.061 16.173c0 0.002-0 0.003-0 0.005 0 0.155 0.059 0.295 0.157 0.401l-0-0c0.093 0.104 0.227 0.169 0.377 0.171h0c0.149 0 0.284-0.071 0.377-0.171 0.097-0.105 0.156-0.246 0.156-0.4 0-0.002 0-0.004-0-0.005v0-0.768h-1.067v0.768z"></path>
<path fill="#fff" style="fill: var(--color4, #fff)" d="M15.417 15.697c0 0.059-0.048 0.107-0.107 0.107s-0.107-0.048-0.107-0.107c0-0.059 0.048-0.107 0.107-0.107s0.107 0.048 0.107 0.107z"></path>
<path fill="#fff" style="fill: var(--color4, #fff)" d="M16.007 15.697c0 0.059-0.048 0.107-0.107 0.107s-0.107-0.048-0.107-0.107c0-0.059 0.048-0.107 0.107-0.107s0.107 0.048 0.107 0.107z"></path>
<path fill="#fff" style="fill: var(--color4, #fff)" d="M15.709 15.981c0 0.059-0.048 0.107-0.107 0.107s-0.107-0.048-0.107-0.107c0-0.059 0.048-0.107 0.107-0.107s0.107 0.048 0.107 0.107z"></path>
<path fill="#fff" style="fill: var(--color4, #fff)" d="M15.417 16.28c0 0.059-0.048 0.107-0.107 0.107s-0.107-0.048-0.107-0.107c0-0.059 0.048-0.107 0.107-0.107s0.107 0.048 0.107 0.107z"></path>
<path fill="#fff" style="fill: var(--color4, #fff)" d="M16.007 16.28c0 0.059-0.048 0.107-0.107 0.107s-0.107-0.048-0.107-0.107c0-0.059 0.048-0.107 0.107-0.107s0.107 0.048 0.107 0.107z"></path>
<path fill="#039" style="fill: var(--color6, #039)" d="M18.020 16.173c0 0.002-0 0.003-0 0.005 0 0.155 0.059 0.295 0.157 0.401l-0-0c0.093 0.104 0.227 0.169 0.377 0.171h0c0.149 0 0.284-0.071 0.377-0.171 0.097-0.105 0.156-0.246 0.156-0.4 0-0.002 0-0.004-0-0.005v0-0.768h-1.067v0.768z"></path>
<path fill="#fff" style="fill: var(--color4, #fff)" d="M18.375 15.697c0 0.059-0.048 0.107-0.107 0.107s-0.107-0.048-0.107-0.107c0-0.059 0.048-0.107 0.107-0.107s0.107 0.048 0.107 0.107z"></path>
<path fill="#fff" style="fill: var(--color4, #fff)" d="M18.965 15.697c0 0.059-0.048 0.107-0.107 0.107s-0.107-0.048-0.107-0.107c0-0.059 0.048-0.107 0.107-0.107s0.107 0.048 0.107 0.107z"></path>
<path fill="#fff" style="fill: var(--color4, #fff)" d="M18.667 15.981c0 0.059-0.048 0.107-0.107 0.107s-0.107-0.048-0.107-0.107c0-0.059 0.048-0.107 0.107-0.107s0.107 0.048 0.107 0.107z"></path>
<path fill="#fff" style="fill: var(--color4, #fff)" d="M18.375 16.28c0 0.059-0.048 0.107-0.107 0.107s-0.107-0.048-0.107-0.107c0-0.059 0.048-0.107 0.107-0.107s0.107 0.048 0.107 0.107z"></path>
<path fill="#fff" style="fill: var(--color4, #fff)" d="M18.965 16.28c0 0.059-0.048 0.107-0.107 0.107s-0.107-0.048-0.107-0.107c0-0.059 0.048-0.107 0.107-0.107s0.107 0.048 0.107 0.107z"></path>
<path fill="#039" style="fill: var(--color6, #039)" d="M16.541 18.008c0 0.002-0 0.003-0 0.005 0 0.155 0.059 0.295 0.157 0.401l-0-0c0.093 0.104 0.227 0.169 0.377 0.171h0c0.149 0 0.284-0.071 0.377-0.171 0.097-0.105 0.156-0.246 0.156-0.4 0-0.002 0-0.004-0-0.005v0-0.768h-1.067v0.768z"></path>
<path fill="#fff" style="fill: var(--color4, #fff)" d="M16.896 17.531c0 0.059-0.048 0.107-0.107 0.107s-0.107-0.048-0.107-0.107c0-0.059 0.048-0.107 0.107-0.107s0.107 0.048 0.107 0.107z"></path>
<path fill="#fff" style="fill: var(--color4, #fff)" d="M17.486 17.531c0 0.059-0.048 0.107-0.107 0.107s-0.107-0.048-0.107-0.107c0-0.059 0.048-0.107 0.107-0.107s0.107 0.048 0.107 0.107z"></path>
<path fill="#fff" style="fill: var(--color4, #fff)" d="M17.188 17.816c0 0.059-0.048 0.107-0.107 0.107s-0.107-0.048-0.107-0.107c0-0.059 0.048-0.107 0.107-0.107s0.107 0.048 0.107 0.107z"></path>
<path fill="#fff" style="fill: var(--color4, #fff)" d="M16.896 18.114c0 0.059-0.048 0.107-0.107 0.107s-0.107-0.048-0.107-0.107c0-0.059 0.048-0.107 0.107-0.107s0.107 0.048 0.107 0.107z"></path>
<path fill="#fff" style="fill: var(--color4, #fff)" d="M17.486 18.114c0 0.059-0.048 0.107-0.107 0.107s-0.107-0.048-0.107-0.107c0-0.059 0.048-0.107 0.107-0.107s0.107 0.048 0.107 0.107z"></path>
</symbol>
<symbol id="gb_flag" viewBox="0 0 43 32">
<path fill="#012169" style="fill: var(--color7, #012169)" d="M0 0h42.667v32h-42.667z"></path>
<path fill="#fff" style="fill: var(--color4, #fff)" d="M5 0l16.267 12.067 16.2-12.067h5.2v4.133l-16 11.933 16 11.867v4.067h-5.333l-16-11.933-15.933 11.933h-5.4v-4l15.933-11.867-15.933-11.867v-4.267h5z"></path>
<path fill="#c8102e" style="fill: var(--color8, #c8102e)" d="M28.267 18.733l14.4 10.6v2.667l-18.067-13.267h3.667zM16 20.067l0.4 2.333-12.8 9.6h-3.6l16-11.933zM42.667 0v0.2l-16.6 12.533 0.133-2.933 13.133-9.8h3.333zM0 0l15.933 11.733h-4l-11.933-8.933v-2.8z"></path>
<path fill="#fff" style="fill: var(--color4, #fff)" d="M16.067 0v32h10.667v-32h-10.667zM0 10.667v10.667h42.667v-10.667h-42.667z"></path>
<path fill="#c8102e" style="fill: var(--color8, #c8102e)" d="M0 12.867v6.4h42.667v-6.4h-42.667zM18.2 0v32h6.4v-32h-6.4z"></path>
</symbol>
<symbol id="ee_flag" viewBox="0 0 43 32">
<path fill="#000" style="fill: var(--color5, #000)" d="M0 0h42.667v31.86h-42.667v-31.86z"></path>
<path fill="#fff" style="fill: var(--color4, #fff)" d="M0 21.38h42.667v10.62h-42.667v-10.62z"></path>
<path fill="#1791ff" style="fill: var(--color9, #1791ff)" d="M0 0h42.667v10.62h-42.667z"></path>
</symbol>
<symbol id="ru_flag" viewBox="0 0 43 32">
<path fill="#fff" style="fill: var(--color4, #fff)" d="M0 0h42.667v32h-42.667z"></path>
<path fill="#0039a6" style="fill: var(--color10, #0039a6)" d="M0 10.667h42.667v21.333h-42.667z"></path>
<path fill="#d52b1e" style="fill: var(--color11, #d52b1e)" d="M0 21.333h42.667v10.667h-42.667z"></path>
</symbol>
<symbol id="cog" viewBox="0 0 32 32">
<path d="M29.181 19.070c-1.679-2.908-0.669-6.634 2.255-8.328l-3.145-5.447c-0.898 0.527-1.943 0.829-3.058 0.829-3.361 0-6.085-2.742-6.085-6.125h-6.289c0.008 1.044-0.252 2.103-0.811 3.070-1.679 2.908-5.411 3.897-8.339 2.211l-3.144 5.447c0.905 0.515 1.689 1.268 2.246 2.234 1.676 2.903 0.672 6.623-2.241 8.319l3.145 5.447c0.895-0.522 1.935-0.82 3.044-0.82 3.35 0 6.067 2.725 6.084 6.092h6.289c-0.003-1.034 0.259-2.080 0.811-3.038 1.676-2.903 5.399-3.894 8.325-2.219l3.145-5.447c-0.899-0.515-1.678-1.266-2.232-2.226zM16 22.479c-3.578 0-6.479-2.901-6.479-6.479s2.901-6.479 6.479-6.479c3.578 0 6.479 2.901 6.479 6.479s-2.901 6.479-6.479 6.479z"></path>
</symbol>
<symbol id="feather" viewBox="0 0 32 32">
<path d="M25.419 24.135c-0.055-0.409-0.112-0.737-0.18-1.060l0.017 0.097c-0.427-2.084-1.407-4.017-2.836-5.593 0.426 1.877-0.74 3.076-0.754 3.072 0.206-2.254-0.546-4.493-2.072-6.165-0.117-0.12-0.733-0.794-1.347-1.469l-0.539-0.601c-2.235-2.458-4.050-4.949-5.672-7.050 0.039 1.038-0.312 2.368-1.702 3.995 0.016-0.002 0.595-1.129 0.809-3.013 0.018-0.147 0.028-0.317 0.028-0.489 0-1.12-0.424-2.14-1.12-2.91l0.003 0.004c-2.016-2.234-3.997-3.529-6.538-2.698-2.644 0.852-3.43 3.69-2.466 7.609 0.28 1.114 0.963 2.036 1.881 2.622l0.017 0.010c2.155 1.357 3.746 1.215 3.731 1.231-2.083 0.559-3.574 0.055-4.569-0.74 1.321 3.114 3.546 6.525 6.459 9.725 1.026 1.128 2.11 2.157 3.265 3.102l0.054 0.043c1.847 1.503 4.356 1.933 6.597 1.126-0.007-0.014-0.709 1.579-2.946 1.41 0.039 0.029 0.228 0.139 0.418 0.246l0.161 0.083c1.241 0.686 2.632 1.075 4.048 1.122 1.044 0.036 2.229-0.099 3.452-0.565 0.048 0.010-2.855 1.984-0.654 4.614 0.003-1.146 2.295-3.586 3.158-4.519 0.026-0.026-1.204 2.599 2.157 4.626-1.423-1.744-0.664-2.904-0.158-3.769-2.103-0.895-4.263-2.034-6.295-3.359-3.927-2.542-7.277-5.809-9.414-8.526-1.086-1.348-1.864-2.564-2.412-3.405-0.534-0.853-0.801-1.364-0.802-1.363 0.001-0.001 0.37 0.441 1.021 1.203 0.638 0.769 1.607 1.819 2.79 3.039 2.367 2.443 5.764 5.432 9.577 7.888 1.971 1.29 4.034 2.45 6.038 3.422 0.31-0.97 0.771-2.206 2.724-2.513-3.163-0.801-4.576 1.479-4.583 1.507 0.22-1.257 1.12-4.442 1.981-5.134-2.767-0.099-3.358 3.112-3.325 3.145z"></path>
</symbol>
<symbol id="coursera" viewBox="0 0 32 32">
<path d="M15.165 31.969c-5.577-0.28-10.675-3.501-13.279-8.463-2.796-5.144-2.495-11.819 0.976-16.605 3.468-5.117 9.8-7.832 16.179-6.595 6.111 1.143 11.135 5.992 12.477 11.881 1.496 5.792-0.564 12.231-5.233 16.053-3.052 2.604-7.060 3.941-11.12 3.729zM25.439 21.236c2.103 1.127 0.723 0.294-0.661-0.535l-3.567-1.981c-1.204 1.977-3.847 2.997-6.093 2.22-2.699-0.852-4.525-3.983-3.317-6.845 1.068-2.679 3.72-3.609 5.809-3.285 1.448 0.28 2.671 1.087 3.486 2.209l0.011 0.016c1.436-0.841 2.837-1.624 4.231-2.473-2.707-4.157-8.201-5.725-12.875-3.672-4.173 1.897-6.52 6.24-5.851 10.559 0.72 4.797 4.973 8.648 10.288 8.539 3.579-0.034 6.714-1.903 8.514-4.71l0.024-0.041z"></path>
</symbol>
<symbol id="goit" viewBox="0 0 105 32">
<path fill="#e4ab90" style="fill: var(--color1, #e4ab90)" d="M0 0v0.258h46.452l-4.645-0.258h-41.806z"></path>
<path fill="#fcfbfa" style="fill: var(--color2, #fcfbfa)" d="M46.452 0l8.172 11.871 2.575 4.387-2.933 4.645-7.556 11.097h58.323v-0.258h-46.452v-31.742h-12.129z"></path>
<path fill="#e4ab90" style="fill: var(--color1, #e4ab90)" d="M58.581 0v31.742h0.258v-22.194c0-2.744 0.802-7.022-0.258-9.548z"></path>
<path fill="#ff6d01" style="fill: var(--color3, #ff6d01)" d="M58.839 0v31.742h46.194v-31.742h-46.194z"></path>
<path fill="#010101" style="fill: var(--color4, #010101)" d="M0 0.258v31.742h42.323l4.105-0.265 3.342-4.38 7.778-11.097-7.556-11.097-3.416-4.638-3.737-0.265h-42.839z"></path>
<path fill="#5d5d5d" style="fill: var(--color5, #5d5d5d)" d="M46.71 0.516v0z"></path>
<path fill="#e4ab90" style="fill: var(--color1, #e4ab90)" d="M46.968 0.774v0z"></path>
<path fill="#5d5d5d" style="fill: var(--color5, #5d5d5d)" d="M47.226 1.29v0z"></path>
<path fill="#e4ab90" style="fill: var(--color1, #e4ab90)" d="M47.484 1.548v0zM47.742 1.806v0z"></path>
<path fill="#5d5d5d" style="fill: var(--color5, #5d5d5d)" d="M47.742 2.065v0zM48 2.323v0z"></path>
<path fill="#e4ab90" style="fill: var(--color1, #e4ab90)" d="M48.258 2.581v0z"></path>
<path fill="#5d5d5d" style="fill: var(--color5, #5d5d5d)" d="M48.516 3.097v0z"></path>
<path fill="#e4ab90" style="fill: var(--color1, #e4ab90)" d="M48.774 3.355v0z"></path>
<path fill="#5d5d5d" style="fill: var(--color5, #5d5d5d)" d="M49.032 3.871v0z"></path>
<path fill="#e4ab90" style="fill: var(--color1, #e4ab90)" d="M49.29 4.129v0z"></path>
<path fill="#5d5d5d" style="fill: var(--color5, #5d5d5d)" d="M49.548 4.645v0z"></path>
<path fill="#e4ab90" style="fill: var(--color1, #e4ab90)" d="M49.806 4.903v0z"></path>
<path fill="#5d5d5d" style="fill: var(--color5, #5d5d5d)" d="M50.065 5.419v0zM50.323 5.677v0z"></path>
<path fill="#e4ab90" style="fill: var(--color1, #e4ab90)" d="M50.581 5.935v0z"></path>
<path fill="#5d5d5d" style="fill: var(--color5, #5d5d5d)" d="M50.839 6.452v0z"></path>
<path fill="#e4ab90" style="fill: var(--color1, #e4ab90)" d="M51.097 6.71v0z"></path>
<path fill="#5d5d5d" style="fill: var(--color5, #5d5d5d)" d="M51.355 7.226v0z"></path>
<path fill="#e4ab90" style="fill: var(--color1, #e4ab90)" d="M51.613 7.484v0z"></path>
<path fill="#5d5d5d" style="fill: var(--color5, #5d5d5d)" d="M51.871 8v0zM17.548 8.258v0.258h1.29l-1.29-0.258z"></path>
<path fill="#e4ab90" style="fill: var(--color1, #e4ab90)" d="M52.129 8.258v0z"></path>
<path fill="#5d5d5d" style="fill: var(--color5, #5d5d5d)" d="M16 8.516v0z"></path>
<path fill="#e4ab90" style="fill: var(--color1, #e4ab90)" d="M16.258 8.516v0z"></path>
<path fill="#fcfbfa" style="fill: var(--color2, #fcfbfa)" d="M24.516 14.452h-6.968v3.613h2.839c-1.109 3.736-6.89 0.066-5.271-3.355 1.788-3.778 3.741-1.070 6.294-1.117 1.222-0.023 2.258-2.031 2.591-3.012-1.589-1.128-3.172-1.965-5.161-2.054-1.543-0.070-3.007 0.117-4.387 0.848-5.683 3.011-4.95 12.007 1.29 13.84 2.219 0.652 7.26 0.413 8.361-2.131 0.816-1.888-0.072-4.59 0.414-6.632z"></path>
<path fill="#e4ab90" style="fill: var(--color1, #e4ab90)" d="M20.043 8.602v0z"></path>
<path fill="#5d5d5d" style="fill: var(--color5, #5d5d5d)" d="M20.387 8.516v0zM34.065 8.516v0z"></path>
<path fill="#e4ab90" style="fill: var(--color1, #e4ab90)" d="M34.323 8.516v0.258h0.774l-0.774-0.258z"></path>
<path fill="#fcfbfa" style="fill: var(--color2, #fcfbfa)" d="M35.097 8.628c-10.353 1.363-8.002 16.271 2.323 14.812 9.336-1.319 6.997-16.039-2.323-14.812z"></path>
<path fill="#e4ab90" style="fill: var(--color1, #e4ab90)" d="M36.645 8.516v0.258h0.774l-0.774-0.258z"></path>
<path fill="#5d5d5d" style="fill: var(--color5, #5d5d5d)" d="M37.419 8.516v0z"></path>
<path fill="#e4ab90" style="fill: var(--color1, #e4ab90)" d="M15.226 8.774v0zM20.903 8.774v0z"></path>
<path fill="#5d5d5d" style="fill: var(--color5, #5d5d5d)" d="M21.161 8.774v0zM33.032 8.774v0z"></path>
<path fill="#e4ab90" style="fill: var(--color1, #e4ab90)" d="M33.29 8.774v0zM38.194 8.774v0z"></path>
<path fill="#5d5d5d" style="fill: var(--color5, #5d5d5d)" d="M38.452 8.774v0z"></path>
<path fill="#e4ab90" style="fill: var(--color1, #e4ab90)" d="M72.258 8.774v14.968h4.387v-0.258h-4.129v-14.452h4.129l-4.387-0.258zM79.742 12.903h0.258v-3.871h12.129v3.871c2.237-5.331-4.271-4.129-7.484-4.129-1.115 0-3.575-0.459-4.49 0.265-0.828 0.656-0.414 2.916-0.414 3.864zM14.71 9.032v0zM21.677 9.032v0z"></path>
<path fill="#5d5d5d" style="fill: var(--color5, #5d5d5d)" d="M32.516 9.032v0zM38.968 9.032v0z"></path>
<path fill="#e4ab90" style="fill: var(--color1, #e4ab90)" d="M52.645 9.032v0z"></path>
<path fill="#fcfbfa" style="fill: var(--color2, #fcfbfa)" d="M72.516 9.032v14.452h4.129v-14.452h-4.129zM80 9.032v3.871h4.129v10.581h4.129v-10.581h3.871v-3.871h-12.129z"></path>
<path fill="#e4ab90" style="fill: var(--color1, #e4ab90)" d="M14.194 9.29v0z"></path>
<path fill="#5d5d5d" style="fill: var(--color5, #5d5d5d)" d="M22.194 9.29v0z"></path>
<path fill="#e4ab90" style="fill: var(--color1, #e4ab90)" d="M32 9.29v0zM39.484 9.29v0z"></path>
<path fill="#5d5d5d" style="fill: var(--color5, #5d5d5d)" d="M13.677 9.548v0zM22.71 9.548v0zM31.484 9.548v0zM40 9.548v0z"></path>
<path fill="#e4ab90" style="fill: var(--color1, #e4ab90)" d="M13.419 9.806v0zM22.968 9.806v0zM31.226 9.806v0zM40.258 9.806v0z"></path>
<path fill="#5d5d5d" style="fill: var(--color5, #5d5d5d)" d="M53.161 9.806v0zM12.903 10.065v0z"></path>
<path fill="#e4ab90" style="fill: var(--color1, #e4ab90)" d="M23.226 10.065v0z"></path>
<path fill="#5d5d5d" style="fill: var(--color5, #5d5d5d)" d="M30.71 10.065v0z"></path>
<path fill="#e4ab90" style="fill: var(--color1, #e4ab90)" d="M53.419 10.065v0z"></path>
<path fill="#5d5d5d" style="fill: var(--color5, #5d5d5d)" d="M12.645 10.323v0zM23.742 10.323v0zM30.452 10.323v0zM41.032 10.323v0zM12.387 10.581v0zM24 10.581v0zM30.194 10.581v0zM41.29 10.581v0zM53.677 10.581v0z"></path>
<path fill="#e4ab90" style="fill: var(--color1, #e4ab90)" d="M24 10.839v0z"></path>
<path fill="#5d5d5d" style="fill: var(--color5, #5d5d5d)" d="M29.935 10.839v0zM41.548 10.839v0z"></path>
<path fill="#e4ab90" style="fill: var(--color1, #e4ab90)" d="M53.935 10.839v0zM23.742 11.097v0z"></path>
<path fill="#5d5d5d" style="fill: var(--color5, #5d5d5d)" d="M29.677 11.097v0z"></path>
<path fill="#e4ab90" style="fill: var(--color1, #e4ab90)" d="M11.871 11.355v0z"></path>
<path fill="#5d5d5d" style="fill: var(--color5, #5d5d5d)" d="M54.194 11.355v0zM11.613 11.613v0z"></path>
<path fill="#e4ab90" style="fill: var(--color1, #e4ab90)" d="M29.419 11.613v0zM42.065 11.613v0zM54.452 11.613v0z"></path>
<path fill="#5d5d5d" style="fill: var(--color5, #5d5d5d)" d="M11.355 11.871v0zM23.226 11.871v0zM29.161 11.871v0zM42.323 11.871v0z"></path>
<path fill="#e4ab90" style="fill: var(--color1, #e4ab90)" d="M11.355 12.129v0z"></path>
<path fill="#5d5d5d" style="fill: var(--color5, #5d5d5d)" d="M22.968 12.129v0zM54.71 12.129v0zM11.097 12.387v0zM17.29 12.387v0.258h1.548l-1.548-0.258z"></path>
<path fill="#e4ab90" style="fill: var(--color1, #e4ab90)" d="M18.839 12.387v0zM22.71 12.387v0zM28.903 12.387v0zM35.355 12.387v0.258h0.774l-0.774-0.258zM42.581 12.387v0zM54.968 12.387v0zM11.097 12.645v0zM16.516 12.645v0z"></path>
<path fill="#010101" style="fill: var(--color4, #010101)" d="M20.129 18.323h-2.839v-4.129h4.129c-2.741-3.284-8.217-0.539-6.076 3.609 0.829 1.606 4.064 2.715 4.785 0.52z"></path>
<path fill="#5d5d5d" style="fill: var(--color5, #5d5d5d)" d="M19.355 12.645v0z"></path>
<path fill="#e4ab90" style="fill: var(--color1, #e4ab90)" d="M19.613 12.645v0zM22.452 12.645v0zM34.323 12.645v0z"></path>
<path fill="#5d5d5d" style="fill: var(--color5, #5d5d5d)" d="M34.581 12.645v0z"></path>
<path fill="#010101" style="fill: var(--color4, #010101)" d="M34.839 12.814c-4.039 1.253-2.085 7.889 2.063 6.591 3.943-1.234 2.087-7.879-2.063-6.591z"></path>
<path fill="#5d5d5d" style="fill: var(--color5, #5d5d5d)" d="M36.817 12.731v0zM10.839 12.903v0zM16.258 12.903v0z"></path>
<path fill="#e4ab90" style="fill: var(--color1, #e4ab90)" d="M20.129 12.903v0zM28.645 12.903v0z"></path>
<path fill="#5d5d5d" style="fill: var(--color5, #5d5d5d)" d="M34.065 12.903v0zM37.419 12.903v0zM42.839 12.903v0zM55.226 12.903v0z"></path>
<path fill="#e4ab90" style="fill: var(--color1, #e4ab90)" d="M83.871 12.903v10.839h4.387v-0.258h-4.129c0-3.018 0.906-7.806-0.258-10.581zM10.839 13.161v0z"></path>
<path fill="#5d5d5d" style="fill: var(--color5, #5d5d5d)" d="M20.387 13.161v0z"></path>
<path fill="#e4ab90" style="fill: var(--color1, #e4ab90)" d="M33.548 13.161v0zM55.484 13.161v0z"></path>
<path fill="#5d5d5d" style="fill: var(--color5, #5d5d5d)" d="M21.935 13.419v0zM28.387 13.419v0z"></path>
<path fill="#e4ab90" style="fill: var(--color1, #e4ab90)" d="M33.29 13.419v0z"></path>
<path fill="#5d5d5d" style="fill: var(--color5, #5d5d5d)" d="M43.097 13.419v0zM10.667 13.85v0zM15.484 13.677v0z"></path>
<path fill="#e4ab90" style="fill: var(--color1, #e4ab90)" d="M21.161 13.677v0zM21.677 13.677v0zM28.387 13.677v0zM43.097 13.677v0z"></path>
<path fill="#5d5d5d" style="fill: var(--color5, #5d5d5d)" d="M55.742 13.677v0z"></path>
<path fill="#e4ab90" style="fill: var(--color1, #e4ab90)" d="M15.226 13.935v0z"></path>
<path fill="#5d5d5d" style="fill: var(--color5, #5d5d5d)" d="M17.29 14.194v0.258h7.226l-7.226-0.258zM38.452 13.935v0zM56 13.935v0z"></path>
<path fill="#e4ab90" style="fill: var(--color1, #e4ab90)" d="M10.581 14.194v0z"></path>
<path fill="#5d5d5d" style="fill: var(--color5, #5d5d5d)" d="M28.215 14.366v0z"></path>
<path fill="#e4ab90" style="fill: var(--color1, #e4ab90)" d="M32.774 14.194v0zM38.71 14.194v0zM56.258 14.194v0zM14.968 14.452v0zM17.29 14.452c0 2.934-0.065 3.871 3.097 3.871v-0.258h-2.839l-0.258-3.613z"></path>
<path fill="#5d5d5d" style="fill: var(--color5, #5d5d5d)" d="M38.71 14.452v0zM43.355 14.452v0z"></path>
<path fill="#e4ab90" style="fill: var(--color1, #e4ab90)" d="M24.258 14.71v6.452h0.258l-0.258-6.452zM28.215 14.882v0zM32.516 14.71v0zM43.355 14.71v1.032h0.258l-0.258-1.032z"></path>
<path fill="#5d5d5d" style="fill: var(--color5, #5d5d5d)" d="M56.516 14.71v0zM10.323 14.968v2.065h0.258l-0.258-2.065zM32.602 15.14v0z"></path>
<path fill="#e4ab90" style="fill: var(--color1, #e4ab90)" d="M38.968 14.968v0zM56.774 14.968v0zM14.71 15.226v1.548h0.258l-0.258-1.548z"></path>
<path fill="#5d5d5d" style="fill: var(--color5, #5d5d5d)" d="M39.054 15.398v0zM57.032 15.484v0z"></path>
<path fill="#e4ab90" style="fill: var(--color1, #e4ab90)" d="M57.29 15.742v0zM57.29 16.258v0z"></path>
<path fill="#5d5d5d" style="fill: var(--color5, #5d5d5d)" d="M39.054 16.688v0z"></path>
<path fill="#e4ab90" style="fill: var(--color1, #e4ab90)" d="M43.355 16.516v1.032h0.258l-0.258-1.032z"></path>
<path fill="#5d5d5d" style="fill: var(--color5, #5d5d5d)" d="M57.032 16.516v0zM32.602 16.946v0z"></path>
<path fill="#e4ab90" style="fill: var(--color1, #e4ab90)" d="M28.215 17.204v0zM38.968 17.032v0zM56.774 17.032v0z"></path>
<path fill="#5d5d5d" style="fill: var(--color5, #5d5d5d)" d="M14.968 17.29v0z"></path>
<path fill="#e4ab90" style="fill: var(--color1, #e4ab90)" d="M32.516 17.29v0z"></path>
<path fill="#5d5d5d" style="fill: var(--color5, #5d5d5d)" d="M56.516 17.29v0zM28.215 17.721v0zM32.774 17.548v0zM38.71 17.548v0zM43.355 17.548v0z"></path>
<path fill="#e4ab90" style="fill: var(--color1, #e4ab90)" d="M10.581 17.806v0z"></path>
<path fill="#5d5d5d" style="fill: var(--color5, #5d5d5d)" d="M15.226 17.806v0z"></path>
<path fill="#e4ab90" style="fill: var(--color1, #e4ab90)" d="M32.774 17.806v0zM38.71 17.806v0zM56.258 17.806v0z"></path>
<path fill="#5d5d5d" style="fill: var(--color5, #5d5d5d)" d="M10.667 18.237v0zM17.29 18.065v0zM33.032 18.065v0zM38.452 18.065v0zM56 18.065v0z"></path>
<path fill="#e4ab90" style="fill: var(--color1, #e4ab90)" d="M15.484 18.323v0z"></path>
<path fill="#5d5d5d" style="fill: var(--color5, #5d5d5d)" d="M20.129 18.323v0.774h0.258l-0.258-0.774z"></path>
<path fill="#e4ab90" style="fill: var(--color1, #e4ab90)" d="M28.387 18.323v0zM43.097 18.323v0z"></path>
<path fill="#5d5d5d" style="fill: var(--color5, #5d5d5d)" d="M55.742 18.323v0z"></path>
<path fill="#e4ab90" style="fill: var(--color1, #e4ab90)" d="M10.839 18.581v0zM15.742 18.581v0z"></path>
<path fill="#5d5d5d" style="fill: var(--color5, #5d5d5d)" d="M28.387 18.581v0zM43.097 18.581v0zM10.839 18.839v0z"></path>
<path fill="#e4ab90" style="fill: var(--color1, #e4ab90)" d="M16 18.839v0z"></path>
<path fill="#5d5d5d" style="fill: var(--color5, #5d5d5d)" d="M33.806 18.839v0z"></path>
<path fill="#e4ab90" style="fill: var(--color1, #e4ab90)" d="M55.484 18.839v0z"></path>
<path fill="#5d5d5d" style="fill: var(--color5, #5d5d5d)" d="M16.516 19.097v0zM19.871 19.097v0z"></path>
<path fill="#e4ab90" style="fill: var(--color1, #e4ab90)" d="M28.645 19.097v0zM34.065 19.097v0z"></path>
<path fill="#5d5d5d" style="fill: var(--color5, #5d5d5d)" d="M37.419 19.097v0zM42.839 19.097v0zM55.226 19.097v0z"></path>
<path fill="#e4ab90" style="fill: var(--color1, #e4ab90)" d="M11.097 19.355v0zM17.032 19.355v0z"></path>
<path fill="#5d5d5d" style="fill: var(--color5, #5d5d5d)" d="M17.462 19.441v0zM19.011 19.441v0z"></path>
<path fill="#e4ab90" style="fill: var(--color1, #e4ab90)" d="M19.355 19.355v0zM34.581 19.355v0z"></path>
<path fill="#5d5d5d" style="fill: var(--color5, #5d5d5d)" d="M34.839 19.355v0zM36.645 19.355v0z"></path>
<path fill="#e4ab90" style="fill: var(--color1, #e4ab90)" d="M36.903 19.355v0zM28.903 19.613v0z"></path>
<path fill="#5d5d5d" style="fill: var(--color5, #5d5d5d)" d="M42.581 19.613v0z"></path>
<path fill="#e4ab90" style="fill: var(--color1, #e4ab90)" d="M54.968 19.613v0z"></path>
<path fill="#5d5d5d" style="fill: var(--color5, #5d5d5d)" d="M11.355 19.871v0z"></path>
<path fill="#e4ab90" style="fill: var(--color1, #e4ab90)" d="M42.323 19.871v0z"></path>
<path fill="#5d5d5d" style="fill: var(--color5, #5d5d5d)" d="M54.71 19.871v0zM29.161 20.129v0zM42.323 20.129v0zM11.613 20.387v0z"></path>
<path fill="#e4ab90" style="fill: var(--color1, #e4ab90)" d="M29.419 20.387v0z"></path>
<path fill="#5d5d5d" style="fill: var(--color5, #5d5d5d)" d="M42.065 20.387v0z"></path>
<path fill="#e4ab90" style="fill: var(--color1, #e4ab90)" d="M54.452 20.387v0z"></path>
<path fill="#5d5d5d" style="fill: var(--color5, #5d5d5d)" d="M11.871 20.645v0z"></path>
<path fill="#e4ab90" style="fill: var(--color1, #e4ab90)" d="M41.806 20.645v0z"></path>
<path fill="#5d5d5d" style="fill: var(--color5, #5d5d5d)" d="M54.194 20.645v0z"></path>
<path fill="#e4ab90" style="fill: var(--color1, #e4ab90)" d="M12.129 20.903v0z"></path>
<path fill="#5d5d5d" style="fill: var(--color5, #5d5d5d)" d="M29.677 20.903v0z"></path>
<path fill="#e4ab90" style="fill: var(--color1, #e4ab90)" d="M12.387 21.161v0z"></path>
<path fill="#5d5d5d" style="fill: var(--color5, #5d5d5d)" d="M24.258 21.161v0zM29.935 21.161v0z"></path>
<path fill="#e4ab90" style="fill: var(--color1, #e4ab90)" d="M53.935 21.161v0zM12.645 21.419v0zM23.742 21.419v0z"></path>
<path fill="#5d5d5d" style="fill: var(--color5, #5d5d5d)" d="M30.194 21.419v0zM53.677 21.419v0z"></path>
<path fill="#e4ab90" style="fill: var(--color1, #e4ab90)" d="M12.903 21.677v0z"></path>
<path fill="#5d5d5d" style="fill: var(--color5, #5d5d5d)" d="M23.484 21.677v0zM30.452 21.677v0zM53.419 21.677v0zM13.161 21.935v0zM23.226 21.935v0zM30.71 21.935v0z"></path>
<path fill="#e4ab90" style="fill: var(--color1, #e4ab90)" d="M40.516 21.935v0z"></path>
<path fill="#5d5d5d" style="fill: var(--color5, #5d5d5d)" d="M13.419 22.194v0zM22.71 22.194v0z"></path>
<path fill="#e4ab90" style="fill: var(--color1, #e4ab90)" d="M31.226 22.194v0z"></path>
<path fill="#5d5d5d" style="fill: var(--color5, #5d5d5d)" d="M40.258 22.194v0z"></path>
<path fill="#e4ab90" style="fill: var(--color1, #e4ab90)" d="M53.161 22.194v0z"></path>
<path fill="#5d5d5d" style="fill: var(--color5, #5d5d5d)" d="M13.935 22.452v0z"></path>
<path fill="#e4ab90" style="fill: var(--color1, #e4ab90)" d="M22.194 22.452v0z"></path>
<path fill="#5d5d5d" style="fill: var(--color5, #5d5d5d)" d="M31.484 22.452v0z"></path>
<path fill="#e4ab90" style="fill: var(--color1, #e4ab90)" d="M39.742 22.452v0z"></path>
<path fill="#5d5d5d" style="fill: var(--color5, #5d5d5d)" d="M52.903 22.452v0z"></path>
<path fill="#e4ab90" style="fill: var(--color1, #e4ab90)" d="M14.452 22.71v0zM21.677 22.71v0zM32 22.71v0z"></path>
<path fill="#5d5d5d" style="fill: var(--color5, #5d5d5d)" d="M39.484 22.71v0zM14.968 22.968v0z"></path>
<path fill="#e4ab90" style="fill: var(--color1, #e4ab90)" d="M15.226 22.968v0zM20.903 22.968v0z"></path>
<path fill="#5d5d5d" style="fill: var(--color5, #5d5d5d)" d="M21.161 22.968v0zM32.516 22.968v0z"></path>
<path fill="#e4ab90" style="fill: var(--color1, #e4ab90)" d="M38.71 22.968v0z"></path>
<path fill="#5d5d5d" style="fill: var(--color5, #5d5d5d)" d="M38.968 22.968v0z"></path>
<path fill="#e4ab90" style="fill: var(--color1, #e4ab90)" d="M52.645 22.968v0z"></path>
<path fill="#5d5d5d" style="fill: var(--color5, #5d5d5d)" d="M15.742 23.226v0z"></path>
<path fill="#e4ab90" style="fill: var(--color1, #e4ab90)" d="M16 23.226v0zM20.043 23.312v0z"></path>
<path fill="#5d5d5d" style="fill: var(--color5, #5d5d5d)" d="M20.387 23.226v0z"></path>
<path fill="#e4ab90" style="fill: var(--color1, #e4ab90)" d="M33.462 23.312v0zM37.935 23.226v0z"></path>
<path fill="#5d5d5d" style="fill: var(--color5, #5d5d5d)" d="M38.194 23.226v0zM52.387 23.226v0zM17.032 23.484v0.258h1.032l-1.032-0.258z"></path>
<path fill="#e4ab90" style="fill: var(--color1, #e4ab90)" d="M18.065 23.484v0z"></path>
<path fill="#5d5d5d" style="fill: var(--color5, #5d5d5d)" d="M18.323 23.484v0.258h0.774l-0.774-0.258zM34.237 23.57v0z"></path>
<path fill="#e4ab90" style="fill: var(--color1, #e4ab90)" d="M34.581 23.484v0.258h1.032l-1.032-0.258zM35.871 23.484v0.258h1.29l-1.29-0.258z"></path>
<path fill="#5d5d5d" style="fill: var(--color5, #5d5d5d)" d="M37.161 23.484v0z"></path>
<path fill="#e4ab90" style="fill: var(--color1, #e4ab90)" d="M52.129 23.742v0z"></path>
<path fill="#5d5d5d" style="fill: var(--color5, #5d5d5d)" d="M51.871 24v0zM51.355 24.774v0zM51.097 25.032v0z"></path>
<path fill="#e4ab90" style="fill: var(--color1, #e4ab90)" d="M50.839 25.548v0z"></path>
<path fill="#5d5d5d" style="fill: var(--color5, #5d5d5d)" d="M50.581 25.806v0z"></path>
<path fill="#e4ab90" style="fill: var(--color1, #e4ab90)" d="M50.323 26.323v0z"></path>
<path fill="#5d5d5d" style="fill: var(--color5, #5d5d5d)" d="M50.065 26.581v0z"></path>
<path fill="#e4ab90" style="fill: var(--color1, #e4ab90)" d="M49.806 27.097v0z"></path>
<path fill="#5d5d5d" style="fill: var(--color5, #5d5d5d)" d="M49.548 27.355v0zM49.29 27.613v0z"></path>
<path fill="#e4ab90" style="fill: var(--color1, #e4ab90)" d="M49.29 27.871v0zM49.032 28.129v0z"></path>
<path fill="#5d5d5d" style="fill: var(--color5, #5d5d5d)" d="M48.774 28.387v0z"></path>
<path fill="#e4ab90" style="fill: var(--color1, #e4ab90)" d="M48.516 28.903v0z"></path>
<path fill="#5d5d5d" style="fill: var(--color5, #5d5d5d)" d="M48.258 29.161v0z"></path>
<path fill="#e4ab90" style="fill: var(--color1, #e4ab90)" d="M48 29.677v0z"></path>
<path fill="#5d5d5d" style="fill: var(--color5, #5d5d5d)" d="M47.742 29.935v0z"></path>
<path fill="#e4ab90" style="fill: var(--color1, #e4ab90)" d="M47.484 30.452v0z"></path>
<path fill="#5d5d5d" style="fill: var(--color5, #5d5d5d)" d="M47.226 30.71v0z"></path>
<path fill="#e4ab90" style="fill: var(--color1, #e4ab90)" d="M46.71 31.484v0z"></path>
<path fill="#5d5d5d" style="fill: var(--color5, #5d5d5d)" d="M46.452 31.742v0z"></path>
</symbol>
<symbol id="taltech" viewBox="0 0 40 32">
<path fill="#df54a5" style="fill: var(--color6, #df54a5)" d="M5.526 9.553l2.013-0.043v1.971h0.386v0.043h-0.386v0.086c0.213-0 0.715 0.038 0.857-0.129l1.371-0.086v3.684h0.043v-5.526h1.971v-1.971h-5.783l-0.425 0.067-0.046 0.533v1.371z"></path>
<path fill="#df54a5" style="fill: var(--color6, #df54a5)" d="M12.766 9.082c-0.264 0.206-0.578 1.169-0.557 1.499l-0.3 0.685 0.086-0.043-0.129 0.086v0.043h0.257l0.386-0.063 1.457-0.194-0.086-0.129 0.086-0.129 0.129 0.171-0.129-0.043v0.043l0.343 0.043-0.043-0.171 0.343-0.814-0.086-0.129 0.129-0.086h0.043l0.343 1.114h0.3l0.043-0.129c0.113 0.037 0.361 0.106 0.386-0.043l1.499-0.043-0.343-0.728 0.043-0.129h-0.086c0.015-0.235-0.104-0.67-0.3-0.814 0.044-0.356-0.231-0.779-0.345-1.114-0.040-0.117-0.063-0.299-0.187-0.36-0.377-0.184-1.19-0.026-1.61-0.026-0.285 0-0.918-0.119-1.157 0.049-0.259 0.182-0.531 1.141-0.514 1.45z"></path>
<path fill="#e694c5" style="fill: var(--color7, #e694c5)" d="M19.234 7.582v7.54h5.141v-0.043h-5.098v-6.768l-0.043-0.728z"></path>
<path fill="#df54a5" style="fill: var(--color6, #df54a5)" d="M19.277 7.582v2.485h0.043l0.086-0.086-0.128 0.214 0.685-0.086v-0.043h-0.086v-0.043h1.028v-0.043h-0.086v-0.043l0.685-0.043v-2.313h-2.228z"></path>
<path fill="#c72387" style="fill: var(--color8, #c72387)" d="M19.32 7.582v0zM19.448 7.582v0zM21.291 7.582v0zM21.419 7.582v0z"></path>
<path fill="#c72387" style="fill: var(--color8, #c72387)" d="M19.277 7.625v0zM19.363 7.625v0zM21.376 7.625v0zM21.462 7.625v0zM11.738 7.668v0zM5.74 7.711v0zM13.28 7.711v0zM19.491 7.711v0zM21.248 7.711v0zM5.526 7.754v0z"></path>
<path fill="#c72387" style="fill: var(--color8, #c72387)" d="M19.363 7.754v0zM21.376 7.754v0zM13.194 7.797v0zM19.277 7.797v0zM21.462 7.797v0z"></path>
<path fill="#e694c5" style="fill: var(--color7, #e694c5)" d="M13.123 7.868v0zM16.207 7.868v0zM13.066 7.968v0z"></path>
<path fill="#c72387" style="fill: var(--color8, #c72387)" d="M13.194 8.011l-0.043 0.171h0.043v-0.171zM13.323 8.054v0zM16.236 8.054v0z"></path>
<path fill="#c72387" style="fill: var(--color8, #c72387)" d="M13.066 8.396v0.043l0.129-0.043-0.043 0.129h0.043l0.086-0.129h-0.214zM16.107 8.353v0z"></path>
<path fill="#c72387" style="fill: var(--color8, #c72387)" d="M16.321 8.482v0.129h0.043l-0.043-0.129zM13.066 8.525v0zM16.193 8.525l0.043 0.129h0.043l-0.086-0.129z"></path>
<path fill="#c72387" style="fill: var(--color8, #c72387)" d="M12.894 8.61v0zM16.15 8.61v0zM16.364 8.653v0.129h0.043l-0.043-0.129z"></path>
<path fill="#e694c5" style="fill: var(--color7, #e694c5)" d="M16.55 8.81v0zM12.723 8.91v0zM16.578 8.91v0z"></path>
<path fill="#c72387" style="fill: var(--color8, #c72387)" d="M12.98 8.953v0zM12.737 9.025v0zM16.493 8.996v0z"></path>
<path fill="#c72387" style="fill: var(--color8, #c72387)" d="M16.535 9.167v0zM12.637 9.21v0zM12.809 9.21v0z"></path>
<path fill="#c72387" style="fill: var(--color8, #c72387)" d="M5.583 9.324v0zM7.368 9.296v0zM9.81 9.296v0zM16.493 9.339v0.043h0.171l-0.171-0.043zM9.681 9.339v0zM11.695 9.339v0zM16.707 9.339v0zM5.769 9.396v0zM7.411 9.382v0z"></path>
<path fill="#c72387" style="fill: var(--color8, #c72387)" d="M5.569 9.424v0zM5.655 9.424v0zM7.24 9.424v0zM9.639 9.424v0zM9.853 9.424v0zM11.695 9.424v0zM16.664 9.424v0zM7.325 9.467v0zM5.569 9.51v0zM7.497 9.51v0z"></path>
<path fill="#e694c5" style="fill: var(--color7, #e694c5)" d="M16.793 9.51v0zM5.526 9.553v0.043h2.013c-0.522-0.219-1.445-0.043-2.013-0.043zM9.81 9.553v0.043h1.971c-0.511-0.215-1.414-0.043-1.971-0.043z"></path>
<path fill="#c72387" style="fill: var(--color8, #c72387)" d="M21.376 9.639v0zM20.305 9.681v0.043h0.171l-0.171-0.043zM21.291 9.681v0z"></path>
<path fill="#c72387" style="fill: var(--color8, #c72387)" d="M20.776 9.724v0.043h0.128l-0.128-0.043zM12.466 9.767v0zM12.637 9.767v0.129h0.043l-0.043-0.129zM20.22 9.853v0.043l0.428 0.043v-0.043h-0.086v-0.043h0.9v-0.086l-1.242 0.086zM12.423 9.81v0zM16.793 9.81v0zM16.892 9.838v0z"></path>
<path fill="#c72387" style="fill: var(--color8, #c72387)" d="M12.466 9.853v0zM14.394 9.896v0.043h0.129l-0.129-0.043z"></path>
<path fill="#c72387" style="fill: var(--color8, #c72387)" d="M20.819 9.938v0.043h0.086v0.043h-1.028v0.043h0.086v0.043c-0.175 0-0.562-0.042-0.66 0.148-0.164 0.321-0.026 1.034-0.026 1.394v3.427h5.055v-1.971h-2.827v-3.213l-0.685 0.043zM14.522 9.938v0.086h0.086l-0.086-0.086z"></path>
<path fill="#c72387" style="fill: var(--color8, #c72387)" d="M14.822 9.938v0.043h0.129l-0.129-0.043zM14.993 9.938v0zM19.448 9.938v0.086l0.471-0.043v-0.043h-0.471zM20.048 9.938v0.043l0.171 0.043v-0.043l-0.171-0.043z"></path>
<path fill="#c72387" style="fill: var(--color8, #c72387)" d="M14.394 9.981v0zM16.835 9.981v0zM16.921 9.981v0z"></path>
<path fill="#c72387" style="fill: var(--color8, #c72387)" d="M19.277 10.11v0zM12.509 10.024l0.043 0.086-0.129-0.043-0.043 0.086v0.043c0.105-0.038 0.177-0.060 0.129-0.171zM14.779 10.024v0zM14.865 10.024v0z"></path>
<path fill="#e694c5" style="fill: var(--color7, #e694c5)" d="M12.309 10.095v0zM14.579 10.095v0zM14.751 10.095v0z"></path>
<path fill="#c72387" style="fill: var(--color8, #c72387)" d="M14.394 10.11v0zM14.522 10.11v0zM16.835 10.11v0zM14.779 10.153v0zM14.95 10.153v0z"></path>
<path fill="#c72387" style="fill: var(--color8, #c72387)" d="M12.594 10.195v0zM14.394 10.195v0zM16.964 10.195v0z"></path>
<path fill="#e694c5" style="fill: var(--color7, #e694c5)" d="M17.050 10.195v0zM14.522 10.238v0zM14.779 10.238v0z"></path>
<path fill="#e694c5" style="fill: var(--color7, #e694c5)" d="M12.209 10.324v0zM17.092 10.324v0zM14.479 10.367v0zM14.822 10.367v0z"></path>
<path fill="#c72387" style="fill: var(--color8, #c72387)" d="M12.166 10.538v0zM16.878 10.538v0zM17.007 10.538v0z"></path>
<path fill="#c72387" style="fill: var(--color8, #c72387)" d="M14.394 10.581v0zM15.050 10.61v0zM16.478 10.595v0zM12.166 10.624v0z"></path>
<path fill="#c72387" style="fill: var(--color8, #c72387)" d="M15.122 10.624v0.086h0.086v-0.086h-0.086zM16.921 10.624v0.043h0.214l-0.214-0.043z"></path>
<path fill="#c72387" style="fill: var(--color8, #c72387)" d="M14.094 10.667v0zM16.021 10.752v0zM15.764 10.795c0 0.164-0.272 0.076-0.386 0.043l-0.043 0.129h-0.3l0.386 1.285h-1.499l0.343-1.199-0.3-0.043v-0.043l0.129 0.043-0.129-0.171-0.086 0.129 0.086 0.129c-0.481 0.091-0.979 0.073-1.457 0.177-0.146 0.032-0.362-0.104-0.386 0.080-0.399 0.013-0.446 0.543-0.565 0.857-0.362 0.954-0.696 1.918-1.063 2.87h1.756c0.208 0 0.564 0.068 0.753-0.026 0.316-0.158 0.080-0.788 0.533-0.828 0.576-0.051 1.178-0.003 1.756-0.003 0.186 0 0.509-0.061 0.672 0.044 0.243 0.157 0.119 0.711 0.408 0.799 0.233 0.071 0.561 0.014 0.804 0.014h1.671c-0.394-1.021-0.78-2.051-1.142-3.084-0.106-0.303-0.241-1.054-0.507-1.241-0.331-0.233-1.037 0.116-1.435 0.042z"></path>
<path fill="#c72387" style="fill: var(--color8, #c72387)" d="M15.422 10.71v0.043h0.343l-0.343-0.043zM15.85 10.71v0zM14.993 10.752v0z"></path>
<path fill="#c72387" style="fill: var(--color8, #c72387)" d="M15.079 10.795v0zM15.207 10.795v0zM15.336 10.795v0z"></path>
<path fill="#c72387" style="fill: var(--color8, #c72387)" d="M12.109 10.938v0zM13.365 10.924v0.086h0.086l-0.086-0.086zM13.665 10.924l0.171 0.129v-0.043l-0.171-0.086z"></path>
<path fill="#c72387" style="fill: var(--color8, #c72387)" d="M13.494 11.009v0.043h0.129l-0.129-0.043zM14.137 11.009v0z"></path>
<path fill="#c72387" style="fill: var(--color8, #c72387)" d="M12.68 11.052v0.043l0.343 0.086c-0.037-0.171-0.192-0.129-0.343-0.129zM13.394 11.066v0z"></path>
<path fill="#c72387" style="fill: var(--color8, #c72387)" d="M9.282 11.109v0zM12.294 11.095l0.129 0.086v-0.043l-0.129-0.043zM8.725 11.152v0zM9.596 11.138l-0.043 0.214h0.043v-0.214z"></path>
<path fill="#df54a5" style="fill: var(--color6, #df54a5)" d="M14.222 11.181v0zM15.079 11.181v0zM17.392 11.181v0z"></path>
<path fill="#c72387" style="fill: var(--color8, #c72387)" d="M8.439 11.224v0zM9.282 11.238v0zM11.952 11.224l-0.043 0.086h0.086l-0.043-0.086z"></path>
<path fill="#c72387" style="fill: var(--color8, #c72387)" d="M7.968 11.309v0zM8.182 11.309v0zM8.653 11.438l0.6-0.086c-0.182-0.076-0.484-0.092-0.6 0.086zM9.382 11.309v0.043h0.129l-0.129-0.043z"></path>
<path fill="#df54a5" style="fill: var(--color6, #df54a5)" d="M14.179 11.309v0zM15.122 11.309v0zM17.435 11.309v0z"></path>
<path fill="#c72387" style="fill: var(--color8, #c72387)" d="M8.268 11.352v0.086h0.129v-0.086h-0.129zM8.525 11.352l-0.043 0.086h0.086l-0.043-0.086z"></path>
<path fill="#e694c5" style="fill: var(--color7, #e694c5)" d="M11.838 11.381v0zM14.179 11.352v0zM15.122 11.352v0zM17.478 11.352v0z"></path>
<path fill="#c72387" style="fill: var(--color8, #c72387)" d="M7.925 11.438v0.043h0.3v-0.086l-0.3 0.043zM8.825 11.395v0zM8.396 11.481l-0.857 0.129v3.47h2.228v-3.684l-1.371 0.086z"></path>
<path fill="#df54a5" style="fill: var(--color6, #df54a5)" d="M17.478 11.395v0zM14.137 11.438v0zM15.165 11.438v0z"></path>
<path fill="#e694c5" style="fill: var(--color7, #e694c5)" d="M11.78 11.481v0zM14.151 11.509v0zM15.179 11.509v0zM17.521 11.481v0z"></path>
<path fill="#e694c5" style="fill: var(--color7, #e694c5)" d="M14.051 11.78v0zM15.25 11.78v0zM11.652 11.823v0zM17.649 11.823v0z"></path>
<path fill="#df54a5" style="fill: var(--color6, #df54a5)" d="M11.652 11.866v0zM14.008 11.866v0zM15.293 11.866v0zM17.649 11.866v0z"></path>
<path fill="#e694c5" style="fill: var(--color7, #e694c5)" d="M14.022 11.938v0zM15.307 11.938v0zM11.609 11.952v0zM17.692 11.952v0z"></path>
<path fill="#df54a5" style="fill: var(--color6, #df54a5)" d="M11.609 11.995v0zM13.965 11.995v0zM17.692 11.995v0z"></path>
<path fill="#e694c5" style="fill: var(--color7, #e694c5)" d="M13.979 12.066v0zM15.35 12.066v0zM11.566 12.080v0zM17.735 12.080v0z"></path>
<path fill="#e694c5" style="fill: var(--color7, #e694c5)" d="M11.409 12.537v0zM17.921 12.537v0zM11.352 12.637v0zM17.949 12.637v0z"></path>
<path fill="#e694c5" style="fill: var(--color7, #e694c5)" d="M7.497 12.851v0.171h0.043l-0.043-0.171zM11.266 12.894v0zM18.035 12.894v0zM11.238 13.008v0zM18.078 12.98v0z"></path>
<path fill="#df54a5" style="fill: var(--color6, #df54a5)" d="M24.332 13.108v1.971h0.043c0-0.557 0.172-1.459-0.043-1.971zM11.181 13.151v0zM18.12 13.151v0z"></path>
<path fill="#df54a5" style="fill: var(--color6, #df54a5)" d="M11.138 13.28v0zM11.095 13.365v0zM18.206 13.365v0z"></path>
<path fill="#e694c5" style="fill: var(--color7, #e694c5)" d="M7.497 13.708v1.371h0.043l-0.043-1.371zM10.967 13.708v0zM18.335 13.708v0z"></path>
<path fill="#e694c5" style="fill: var(--color7, #e694c5)" d="M10.795 14.179v0zM18.506 14.179v0zM10.752 14.265v0z"></path>
<path fill="#df54a5" style="fill: var(--color6, #df54a5)" d="M10.624 14.651v0zM18.677 14.651v0zM13.151 14.693v0zM16.15 14.693v0z"></path>
<path fill="#e694c5" style="fill: var(--color7, #e694c5)" d="M10.581 14.736v0zM13.151 14.736v0zM16.15 14.736v0zM18.72 14.736v0z"></path>
<path fill="#df54a5" style="fill: var(--color6, #df54a5)" d="M10.581 14.779v0zM18.72 14.779v0zM13.108 14.822v0zM16.193 14.822v0z"></path>
<path fill="#e694c5" style="fill: var(--color7, #e694c5)" d="M10.538 14.865v0zM13.108 14.865v0zM16.193 14.865v0zM18.763 14.865v0z"></path>
<path fill="#e694c5" style="fill: var(--color7, #e694c5)" d="M10.495 14.993v0zM13.080 15.022v0zM16.25 15.022v0zM18.806 14.993v0zM7.54 15.079v0.043h2.27l-0.728-0.043h-1.542zM10.495 15.079v0.043h2.57l-0.814-0.043h-1.756zM16.278 15.079v0.043h2.57l-0.814-0.043h-1.756zM22.019 15.422v0.043h0.9l-0.9-0.043zM21.676 15.465v0.043h0.128l-0.128-0.043z"></path>
<path fill="#c72387" style="fill: var(--color8, #c72387)" d="M25.831 20.991l-1.928-0.857c-0.287 0.974-1.472 1.326-2.313 0.861-0.542-0.3-0.875-0.899-0.935-1.503-0.189-1.893 2.45-2.89 3.248-0.985l1.971-0.857c-1.048-2.517-4.54-2.889-6.422-1.064-0.98 0.951-1.261 2.422-0.971 3.72 0.479 2.141 2.819 3.253 4.865 2.818 1.015-0.216 2.288-1.028 2.485-2.133z"></path>
<path fill="#df54a5" style="fill: var(--color6, #df54a5)" d="M12.294 19.706h0.043v-4.112h5.612v1.928h-3.384c0.234 0.098 0.562 0.043 0.814 0.043h1.714c0.202 0 0.667 0.086 0.831-0.044 0.178-0.141 0.069-0.815 0.069-1.027 0-0.21 0.091-0.703-0.044-0.874-0.154-0.195-0.962-0.069-1.198-0.069h-3.299c-0.224 0-0.965-0.118-1.113 0.069-0.159 0.201-0.044 0.838-0.044 1.088v2.999z"></path>
<path fill="#df54a5" style="fill: var(--color6, #df54a5)" d="M31.186 16.964h0.043v-1.371h2.228c-0.44-0.185-1.193-0.043-1.671-0.043-0.142 0-0.455-0.058-0.556 0.069-0.188 0.237-0.044 1.045-0.044 1.345z"></path>
<path fill="#c72387" style="fill: var(--color8, #c72387)" d="M5.526 15.593v1.928h2.013v5.569h2.228v-4.070c0-0.303-0.152-1.21 0.069-1.431 0.117-0.117 0.381-0.069 0.531-0.069h1.414v-1.928h-6.254z"></path>
<path fill="#c72387" style="fill: var(--color8, #c72387)" d="M12.337 15.593v7.497h5.612v-1.971h-3.384v-0.857h3.341v-1.971h-3.341v-0.771h3.384v-1.928h-5.612z"></path>
<path fill="#c72387" style="fill: var(--color8, #c72387)" d="M26.26 15.593v7.497h2.27v-2.913h1.928l0.702 0.069 0.069 0.745v2.099h2.228v-7.497h-2.228v1.885l-0.069 0.702-0.702 0.069h-1.928v-2.656h-2.27z"></path>
<path fill="#e694c5" style="fill: var(--color7, #e694c5)" d="M20.005 16.107v0zM24.718 16.107v0zM24.76 16.15v0zM19.877 16.193v0z"></path>
<path fill="#df54a5" style="fill: var(--color6, #df54a5)" d="M24.803 16.193v0zM19.834 16.236v0zM24.846 16.236v0z"></path>
<path fill="#df54a5" style="fill: var(--color6, #df54a5)" d="M19.234 16.793v0zM19.191 16.835v0zM25.403 16.835v0z"></path>
<path fill="#e694c5" style="fill: var(--color7, #e694c5)" d="M19.149 16.878v0zM25.446 16.878v0zM19.106 16.921v0zM25.489 16.921v0z"></path>
<path fill="#e694c5" style="fill: var(--color7, #e694c5)" d="M25.531 17.007v0zM19.020 17.050v0zM25.574 17.050v0z"></path>
<path fill="#df54a5" style="fill: var(--color6, #df54a5)" d="M22.833 17.478v0zM25.788 17.478v0zM5.526 17.521v0.043h2.013c-0.522-0.219-1.445-0.043-2.013-0.043zM9.81 17.521v0.043h1.971c-0.511-0.215-1.414-0.043-1.971-0.043z"></path>
<path fill="#e694c5" style="fill: var(--color7, #e694c5)" d="M14.565 17.564v0.728h0.043l-0.043-0.728zM18.72 17.564v0zM21.762 17.564v0z"></path>
<path fill="#e694c5" style="fill: var(--color7, #e694c5)" d="M21.59 17.649v0zM23.175 17.649v0zM25.788 17.649v0zM21.505 17.692v0zM23.261 17.692v0z"></path>
<path fill="#df54a5" style="fill: var(--color6, #df54a5)" d="M18.549 17.992v0zM21.119 17.992v0zM23.604 17.992v0z"></path>
<path fill="#e694c5" style="fill: var(--color7, #e694c5)" d="M20.819 18.463v0zM23.861 18.463v0zM24.032 18.463v0z"></path>
<path fill="#e694c5" style="fill: var(--color7, #e694c5)" d="M20.776 18.592v0zM18.378 18.635v0.128h0.043l-0.043-0.128z"></path>
<path fill="#e694c5" style="fill: var(--color7, #e694c5)" d="M20.705 18.877v0zM18.335 18.977v0.728h0.043l-0.043-0.728z"></path>
<path fill="#c05ba2" style="fill: var(--color9, #c05ba2)" d="M20.662 19.563v0zM12.294 19.706v3.384h0.043v-2.313l-0.043-1.071z"></path>
<path fill="#c05ba2" style="fill: var(--color9, #c05ba2)" d="M9.767 19.791v3.299h0.043v-2.27l-0.043-1.028zM20.691 19.791v0zM18.392 19.863v0z"></path>
<path fill="#e694c5" style="fill: var(--color7, #e694c5)" d="M23.904 20.091v0zM20.819 20.134v0zM23.989 20.134v0zM18.42 20.177v0z"></path>
<path fill="#c05ba2" style="fill: var(--color9, #c05ba2)" d="M24.075 20.177v0zM28.53 20.177v0.043h2.656l-0.857-0.043h-1.799z"></path>
<path fill="#c05ba2" style="fill: var(--color9, #c05ba2)" d="M31.186 20.22v2.87h0.043v-1.971l-0.043-0.9zM14.565 20.262v0z"></path>
<path fill="#e694c5" style="fill: var(--color7, #e694c5)" d="M24.289 20.262v0zM14.565 20.305v0.171h0.043l-0.043-0.171z"></path>
<path fill="#e694c5" style="fill: var(--color7, #e694c5)" d="M24.375 20.305v0zM18.477 20.377v0zM23.775 20.348v0zM24.46 20.348v0zM20.948 20.391v0z"></path>
<path fill="#e694c5" style="fill: var(--color7, #e694c5)" d="M24.546 20.391v0zM20.991 20.434v0zM23.732 20.434v0z"></path>
<path fill="#c05ba2" style="fill: var(--color9, #c05ba2)" d="M24.632 20.434v0zM18.506 20.477v0zM24.718 20.477v0z"></path>
<path fill="#e694c5" style="fill: var(--color7, #e694c5)" d="M24.76 20.477v0zM14.565 20.519l0.069 0.556 0.917 0.044h2.442v-0.043h-3.384l-0.043-0.557zM18.506 20.519v0z"></path>
<path fill="#c05ba2" style="fill: var(--color9, #c05ba2)" d="M21.033 20.519v0zM23.689 20.519v0zM24.803 20.519v0z"></path>
<path fill="#e694c5" style="fill: var(--color7, #e694c5)" d="M24.846 20.519v0zM21.076 20.562v0z"></path>
<path fill="#c05ba2" style="fill: var(--color9, #c05ba2)" d="M23.647 20.562v0zM24.889 20.562v0z"></path>
<path fill="#e694c5" style="fill: var(--color7, #e694c5)" d="M24.932 20.562v0z"></path>
<path fill="#c05ba2" style="fill: var(--color9, #c05ba2)" d="M18.549 20.605v0z"></path>
<path fill="#e694c5" style="fill: var(--color7, #e694c5)" d="M21.119 20.605v0zM23.604 20.605v0zM25.017 20.605v0zM18.549 20.648v0zM21.162 20.648v0zM23.561 20.648v0zM25.103 20.648v0zM21.205 20.691v0z"></path>
<path fill="#c05ba2" style="fill: var(--color9, #c05ba2)" d="M25.189 20.691v0zM18.592 20.734v0z"></path>
<path fill="#e694c5" style="fill: var(--color7, #e694c5)" d="M21.248 20.734v0z"></path>
<path fill="#c05ba2" style="fill: var(--color9, #c05ba2)" d="M25.274 20.734v0z"></path>
<path fill="#e694c5" style="fill: var(--color7, #e694c5)" d="M25.317 20.734v0zM18.592 20.776v0zM21.291 20.776v0z"></path>
<path fill="#c05ba2" style="fill: var(--color9, #c05ba2)" d="M25.36 20.776v0z"></path>
<path fill="#e694c5" style="fill: var(--color7, #e694c5)" d="M25.403 20.776v0z"></path>
<path fill="#c05ba2" style="fill: var(--color9, #c05ba2)" d="M18.635 20.819v0zM21.333 20.819v0z"></path>
<path fill="#e694c5" style="fill: var(--color7, #e694c5)" d="M23.39 20.819v0z"></path>
<path fill="#c05ba2" style="fill: var(--color9, #c05ba2)" d="M25.446 20.819v0z"></path>
<path fill="#e694c5" style="fill: var(--color7, #e694c5)" d="M25.489 20.819v0zM18.635 20.862v0z"></path>
<path fill="#c05ba2" style="fill: var(--color9, #c05ba2)" d="M21.376 20.862v0z"></path>
<path fill="#e694c5" style="fill: var(--color7, #e694c5)" d="M21.419 20.862v0zM23.347 20.862v0zM25.574 20.862v0zM21.462 20.905v0z"></path>
<path fill="#c05ba2" style="fill: var(--color9, #c05ba2)" d="M23.304 20.905v0z"></path>
<path fill="#e694c5" style="fill: var(--color7, #e694c5)" d="M25.66 20.905v0z"></path>
<path fill="#c05ba2" style="fill: var(--color9, #c05ba2)" d="M18.677 20.948v0zM21.505 20.948v0z"></path>
<path fill="#e694c5" style="fill: var(--color7, #e694c5)" d="M21.548 20.948v0zM23.218 20.948v0z"></path>
<path fill="#c05ba2" style="fill: var(--color9, #c05ba2)" d="M25.746 20.948v0zM21.59 20.991v0z"></path>
<path fill="#e694c5" style="fill: var(--color7, #e694c5)" d="M21.633 20.991v0zM23.133 20.991v0z"></path>
<path fill="#c05ba2" style="fill: var(--color9, #c05ba2)" d="M23.175 20.991v0zM25.846 21.019v0zM18.72 21.033v0zM21.676 21.033v0z"></path>
<path fill="#e694c5" style="fill: var(--color7, #e694c5)" d="M21.719 21.033v0zM23.047 21.033v0z"></path>
<path fill="#c05ba2" style="fill: var(--color9, #c05ba2)" d="M23.090 21.033v0zM14.565 21.076v0z"></path>
<path fill="#e694c5" style="fill: var(--color7, #e694c5)" d="M18.72 21.076v0z"></path>
<path fill="#c05ba2" style="fill: var(--color9, #c05ba2)" d="M21.805 21.076v0z"></path>
<path fill="#e694c5" style="fill: var(--color7, #e694c5)" d="M22.961 21.076v0z"></path>
<path fill="#c05ba2" style="fill: var(--color9, #c05ba2)" d="M23.004 21.076v0z"></path>
<path fill="#e694c5" style="fill: var(--color7, #e694c5)" d="M25.831 21.076v0z"></path>
<path fill="#c05ba2" style="fill: var(--color9, #c05ba2)" d="M17.949 21.119v1.971h0.043c0-0.557 0.172-1.459-0.043-1.971zM18.763 21.119v0zM21.933 21.119v0z"></path>
<path fill="#e694c5" style="fill: var(--color7, #e694c5)" d="M21.976 21.119v0zM22.833 21.119v0z"></path>
<path fill="#c05ba2" style="fill: var(--color9, #c05ba2)" d="M22.875 21.119v0zM25.788 21.119v0z"></path>
<path fill="#e694c5" style="fill: var(--color7, #e694c5)" d="M18.763 21.162v0z"></path>
<path fill="#c05ba2" style="fill: var(--color9, #c05ba2)" d="M22.090 21.176v0z"></path>
<path fill="#e694c5" style="fill: var(--color7, #e694c5)" d="M22.147 21.162v0.043h0.128l-0.128-0.043zM22.618 21.162v0.043h0.128l-0.128-0.043z"></path>
<path fill="#c05ba2" style="fill: var(--color9, #c05ba2)" d="M22.747 21.162v0z"></path>
<path fill="#e694c5" style="fill: var(--color7, #e694c5)" d="M25.788 21.162v0z"></path>
<path fill="#c05ba2" style="fill: var(--color9, #c05ba2)" d="M18.806 21.205v0zM25.746 21.205v0z"></path>
<path fill="#e694c5" style="fill: var(--color7, #e694c5)" d="M25.746 21.248v0zM18.849 21.291v0z"></path>
<path fill="#c05ba2" style="fill: var(--color9, #c05ba2)" d="M25.703 21.291v0zM18.892 21.333v0z"></path>
<path fill="#e694c5" style="fill: var(--color7, #e694c5)" d="M25.703 21.333v0zM18.892 21.376v0z"></path>
<path fill="#c05ba2" style="fill: var(--color9, #c05ba2)" d="M25.66 21.376v0zM18.934 21.419v0z"></path>
<path fill="#e694c5" style="fill: var(--color7, #e694c5)" d="M25.617 21.462v0zM18.977 21.505v0z"></path>
<path fill="#c05ba2" style="fill: var(--color9, #c05ba2)" d="M25.574 21.505v0zM19.020 21.548v0z"></path>
<path fill="#e694c5" style="fill: var(--color7, #e694c5)" d="M25.574 21.548v0z"></path>
<path fill="#c05ba2" style="fill: var(--color9, #c05ba2)" d="M25.531 21.59v0z"></path>
<path fill="#e694c5" style="fill: var(--color7, #e694c5)" d="M19.063 21.633v0zM19.106 21.676v0zM25.489 21.676v0z"></path>
<path fill="#c05ba2" style="fill: var(--color9, #c05ba2)" d="M19.149 21.719v0zM25.446 21.719v0zM19.191 21.762v0zM25.403 21.762v0z"></path>
<path fill="#e694c5" style="fill: var(--color7, #e694c5)" d="M25.36 21.847v0zM19.277 21.89v0z"></path>
<path fill="#c05ba2" style="fill: var(--color9, #c05ba2)" d="M25.317 21.89v0z"></path>
<path fill="#e694c5" style="fill: var(--color7, #e694c5)" d="M19.32 21.933v0z"></path>
<path fill="#c05ba2" style="fill: var(--color9, #c05ba2)" d="M25.274 21.933v0z"></path>
<path fill="#e694c5" style="fill: var(--color7, #e694c5)" d="M19.363 21.976v0z"></path>
<path fill="#c05ba2" style="fill: var(--color9, #c05ba2)" d="M25.232 21.976v0z"></path>
<path fill="#e694c5" style="fill: var(--color7, #e694c5)" d="M19.406 22.019v0zM19.448 22.062v0zM19.491 22.104v0zM25.146 22.104v0zM19.534 22.147v0zM25.103 22.147v0zM19.577 22.19v0zM25.060 22.19v0zM25.017 22.233v0z"></path>
<path fill="#c05ba2" style="fill: var(--color9, #c05ba2)" d="M19.706 22.276v0z"></path>
<path fill="#e694c5" style="fill: var(--color7, #e694c5)" d="M24.975 22.276v0z"></path>
<path fill="#c05ba2" style="fill: var(--color9, #c05ba2)" d="M19.748 22.319v0z"></path>
<path fill="#e694c5" style="fill: var(--color7, #e694c5)" d="M19.791 22.361v0z"></path>
<path fill="#c05ba2" style="fill: var(--color9, #c05ba2)" d="M24.846 22.361v0zM19.877 22.404v0zM24.803 22.404v0z"></path>
<path fill="#e694c5" style="fill: var(--color7, #e694c5)" d="M19.92 22.447v0z"></path>
<path fill="#c05ba2" style="fill: var(--color9, #c05ba2)" d="M24.76 22.447v0z"></path>
<path fill="#e694c5" style="fill: var(--color7, #e694c5)" d="M19.963 22.49v0z"></path>
<path fill="#c05ba2" style="fill: var(--color9, #c05ba2)" d="M20.005 22.49v0z"></path>
<path fill="#e694c5" style="fill: var(--color7, #e694c5)" d="M24.718 22.49v0zM20.048 22.533v0z"></path>
<path fill="#c05ba2" style="fill: var(--color9, #c05ba2)" d="M24.632 22.533v0zM20.134 22.576v0z"></path>
<path fill="#e694c5" style="fill: var(--color7, #e694c5)" d="M24.589 22.576v0zM20.177 22.618v0z"></path>
<path fill="#c05ba2" style="fill: var(--color9, #c05ba2)" d="M24.503 22.618v0z"></path>
<path fill="#e694c5" style="fill: var(--color7, #e694c5)" d="M24.546 22.618v0zM20.262 22.661v0zM24.46 22.661v0z"></path>
<path fill="#c05ba2" style="fill: var(--color9, #c05ba2)" d="M20.348 22.704v0zM24.375 22.704v0zM20.434 22.747v0zM24.289 22.747v0z"></path>
<path fill="#e694c5" style="fill: var(--color7, #e694c5)" d="M24.332 22.747v0z"></path>
<path fill="#c05ba2" style="fill: var(--color9, #c05ba2)" d="M20.519 22.79v0z"></path>
<path fill="#e694c5" style="fill: var(--color7, #e694c5)" d="M24.246 22.79v0zM20.605 22.833v0z"></path>
<path fill="#c05ba2" style="fill: var(--color9, #c05ba2)" d="M20.648 22.833v0zM24.118 22.833v0z"></path>
<path fill="#e694c5" style="fill: var(--color7, #e694c5)" d="M24.161 22.833v0zM20.691 22.875v0z"></path>
<path fill="#c05ba2" style="fill: var(--color9, #c05ba2)" d="M20.734 22.875v0zM24.032 22.875v0z"></path>
<path fill="#e694c5" style="fill: var(--color7, #e694c5)" d="M24.075 22.875v0zM20.819 22.918v0z"></path>
<path fill="#c05ba2" style="fill: var(--color9, #c05ba2)" d="M20.862 22.918v0zM23.946 22.918v0z"></path>
<path fill="#e694c5" style="fill: var(--color7, #e694c5)" d="M20.948 22.961v0z"></path>
<path fill="#c05ba2" style="fill: var(--color9, #c05ba2)" d="M20.991 22.961v0zM23.818 22.961v0z"></path>
<path fill="#e694c5" style="fill: var(--color7, #e694c5)" d="M23.861 22.961v0zM21.076 23.004v0z"></path>
<path fill="#c05ba2" style="fill: var(--color9, #c05ba2)" d="M21.119 23.004v0zM23.689 23.004v0z"></path>
<path fill="#e694c5" style="fill: var(--color7, #e694c5)" d="M23.732 23.004v0zM21.205 23.047v0z"></path>
<path fill="#c05ba2" style="fill: var(--color9, #c05ba2)" d="M21.276 23.061v0zM23.561 23.047v0z"></path>
<path fill="#e694c5" style="fill: var(--color7, #e694c5)" d="M23.604 23.047v0zM21.405 23.104v0z"></path>
<path fill="#c05ba2" style="fill: var(--color9, #c05ba2)" d="M21.462 23.090v0zM23.39 23.090v0z"></path>
<path fill="#e694c5" style="fill: var(--color7, #e694c5)" d="M23.432 23.090v0zM21.619 23.147v0z"></path>
<path fill="#c05ba2" style="fill: var(--color9, #c05ba2)" d="M21.705 23.147v0zM23.175 23.133v0z"></path>
<path fill="#e694c5" style="fill: var(--color7, #e694c5)" d="M23.247 23.147v0zM21.89 23.175v0.043h0.128l-0.128-0.043z"></path>
<path fill="#c05ba2" style="fill: var(--color9, #c05ba2)" d="M22.019 23.175v0.043h0.171l-0.171-0.043zM22.747 23.175v0.043h0.171l-0.171-0.043z"></path>
<path fill="#e694c5" style="fill: var(--color7, #e694c5)" d="M22.918 23.175v0.043h0.171l-0.171-0.043z"></path>
</symbol>
<symbol id="tlu" viewBox="0 0 32 32">
<path fill="#fff" style="fill: var(--color10, #fff)" d="M0 0v32h32v-32h-32z"></path>
<path fill="#532527" style="fill: var(--color11, #532527)" d="M15.871 4.008v0z"></path>
<path fill="#b91f37" style="fill: var(--color12, #b91f37)" d="M8.63 23.855l6.109 0.97v-7.467c0-1.007-0.149-2.090 0.354-3.006 0.851-1.552 1.987-0.746 2.325 0.679 0.601 2.531 0.133 5.646 0.133 8.242 0 0.841-0.263 2.209 0.058 2.989 0.252 0.61 1.446 1.389 1.978 1.762v-9.406c0-1.708 0.211-3.56-0.579-5.139-0.449-0.897-1.776-2.62-2.912-2.618-1.191 0.002-2.517 1.881-2.946 2.812-1.187 2.578-0.545 6.339-0.545 9.115h-1.939c0-4.426-0.842-9.761 2.066-13.495 0.659-0.846 1.451-1.616 2.338-2.222 0.282-0.193 0.662-0.536 1.026-0.514 0.361 0.022 0.773 0.39 1.058 0.592 0.942 0.671 1.855 1.579 2.489 2.547 2.539 3.882 1.884 8.667 1.884 13.091h2.036c0-5.555 0.757-11.73-3.621-15.987-0.851-0.828-1.746-1.566-2.752-2.199-0.354-0.223-0.739-0.608-1.191-0.554-1.306 0.158-2.933 1.854-3.818 2.752-4.498 4.567-3.552 11.201-3.552 17.054z"></path>
<path fill="#532527" style="fill: var(--color11, #532527)" d="M16.194 3.976v0zM15.612 4.073v0zM15.321 4.267v0zM16.743 4.299v0zM16.873 4.364v0zM15.030 4.461v0zM14.901 4.59v0zM17.131 4.59v0z"></path>
<path fill="#e97674" style="fill: var(--color13, #e97674)" d="M14.739 4.655v0z"></path>
<path fill="#532527" style="fill: var(--color11, #532527)" d="M17.358 4.655v0zM17.648 4.848v0zM14.158 5.042v0zM14.028 5.172v0zM18.004 5.172v0zM13.867 5.236v0zM18.23 5.333v0zM13.576 5.43v0zM18.424 5.43v0zM18.521 5.527v0z"></path>
<path fill="#66378c" style="fill: var(--color14, #66378c)" d="M13.285 5.721v0z"></path>
<path fill="#532527" style="fill: var(--color11, #532527)" d="M18.812 5.721v0zM12.994 6.012v0zM19.103 6.012v0zM12.703 6.206v0zM12.606 6.303v0zM19.394 6.303v0zM16.097 6.4v0zM12.412 6.497v0zM16.194 6.497v0zM12.315 6.594v0zM15.677 6.626v0zM16.388 6.594v0zM19.685 6.594v0zM12.121 6.788v0zM12.024 6.885v0zM15.224 6.885v0zM16.776 6.885v0zM19.976 6.885v0zM15.030 6.982v0zM11.83 7.079v0zM17.067 7.079v0zM14.739 7.176v0zM17.261 7.176v0zM14.642 7.273v0zM17.358 7.273v0zM20.461 7.37v0zM11.539 7.467v0zM14.448 7.467v0zM17.616 7.499v0zM20.558 7.467v0zM14.158 7.661v0zM11.248 7.758v0zM14.061 7.758v0zM17.939 7.758v0zM20.849 7.855v0zM13.867 7.952v0zM11.055 8.049v0zM13.77 8.049v0zM18.23 8.049v0zM21.042 8.049v0zM10.958 8.145v0zM21.139 8.242v0zM10.861 8.339v0zM18.521 8.339v0zM13.285 8.533v0zM13.188 8.63v0zM18.812 8.63v0zM21.43 8.63v0zM12.994 8.824v0zM21.527 8.824v0zM10.473 8.921v0zM12.897 8.921v0zM19.103 8.921v0zM21.624 8.921v0zM10.408 9.083v0zM21.721 9.115v0zM12.703 9.212v0zM19.297 9.212v0zM19.394 9.309v0zM10.117 9.568v0zM12.444 9.568v0zM19.491 9.503v0zM22.012 9.6v0zM9.988 9.794v0zM19.685 9.794v0zM12.153 10.053v0zM22.206 9.988v0zM9.826 10.15v0zM19.976 10.182v0zM22.335 10.246v0zM9.697 10.376v0zM11.927 10.376v0zM20.073 10.376v0zM11.863 10.537v0z"></path>
<path fill="#66378c" style="fill: var(--color14, #66378c)" d="M9.6 10.57v0z"></path>
<path fill="#532527" style="fill: var(--color11, #532527)" d="M20.299 10.731v0zM9.503 10.764v0.291h0.097l-0.097-0.291zM16.291 10.861v0zM22.594 10.861v0zM15.612 10.958v0zM16.485 10.958v0zM20.364 10.958v0z"></path>
<path fill="#66378c" style="fill: var(--color14, #66378c)" d="M16.679 11.055v0z"></path>
<path fill="#532527" style="fill: var(--color11, #532527)" d="M11.539 11.152v0zM15.321 11.152v0zM16.776 11.152v0zM15.192 11.281v0zM16.97 11.248v0zM15.030 11.345v0zM20.59 11.41v0zM11.442 11.442v0z"></path>
<path fill="#66378c" style="fill: var(--color14, #66378c)" d="M14.933 11.442v0z"></path>
<path fill="#532527" style="fill: var(--color11, #532527)" d="M9.212 11.539v0.291h0.097l-0.097-0.291z"></path>
<path fill="#e97674" style="fill: var(--color13, #e97674)" d="M11.345 11.539v0z"></path>
<path fill="#532527" style="fill: var(--color11, #532527)" d="M14.739 11.539v0zM17.358 11.539v0z"></path>
<path fill="#66378c" style="fill: var(--color14, #66378c)" d="M14.642 11.636v0z"></path>
<path fill="#532527" style="fill: var(--color11, #532527)" d="M22.885 11.636v0.291h0.097l-0.097-0.291zM14.448 11.83v0zM20.752 11.83v0zM11.248 11.927v0z"></path>
<path fill="#66378c" style="fill: var(--color14, #66378c)" d="M17.842 11.927v0z"></path>
<path fill="#532527" style="fill: var(--color11, #532527)" d="M17.939 12.024v0zM20.881 12.186v0zM22.982 12.121v0z"></path>
<path fill="#e97674" style="fill: var(--color13, #e97674)" d="M9.018 12.315v0z"></path>
<path fill="#532527" style="fill: var(--color11, #532527)" d="M13.867 12.412v0zM18.23 12.412v0z"></path>
<path fill="#e97674" style="fill: var(--color13, #e97674)" d="M20.945 12.412v0z"></path>
<path fill="#532527" style="fill: var(--color11, #532527)" d="M8.921 12.606v0.291h0.097l-0.097-0.291zM18.521 12.703v0zM21.042 12.703v0zM23.176 12.703v0.291h0.097l-0.097-0.291zM10.958 12.8v0.291h0.097l-0.097-0.291zM13.576 12.8v0zM18.715 12.994v0zM18.844 13.156v0zM21.139 13.091v0.291h0.097l-0.097-0.291zM13.285 13.285v0zM15.903 13.285v0zM16.194 13.285v0zM16.388 13.382v0zM10.861 13.479v0zM16.485 13.479v0zM16.582 13.576v0z"></path>
<path fill="#66378c" style="fill: var(--color14, #66378c)" d="M16.679 13.673v0z"></path>
<path fill="#532527" style="fill: var(--color11, #532527)" d="M19.135 13.737v0zM10.764 13.867v0zM12.994 13.867v0zM15.321 13.867v0zM16.776 13.867v0zM23.37 13.867v0zM15.224 13.964v0zM8.63 14.158v0.776h0.097l-0.097-0.776zM12.897 14.158v0zM17.099 14.222v0zM21.333 14.158v0zM15.063 14.319v0z"></path>
<path fill="#e97674" style="fill: var(--color13, #e97674)" d="M19.297 14.255v0z"></path>
<path fill="#532527" style="fill: var(--color11, #532527)" d="M10.667 14.448v0.776h0.097l-0.097-0.776zM17.164 14.448v0zM23.467 14.448v0zM19.394 14.545v0.291h0.097l-0.097-0.291zM23.467 14.642v0zM12.703 14.739v0.388h0.097l-0.097-0.388zM14.836 14.739v0zM17.358 14.836v0.291h0.097l-0.097-0.291zM21.43 14.836v1.358h0.097l-0.097-1.358zM14.739 15.030v0.388h0.097l-0.097-0.388zM19.491 15.224v0zM10.667 22.691v0.097h1.939l-1.939-0.097zM9.212 23.855v0.097h1.261l-1.261-0.097zM12.121 24.145v0.097h0.291l-0.291-0.097zM12.703 24.242v0zM13.285 24.436v0.097h0.291l-0.291-0.097zM13.964 24.63v0zM14.319 24.76v0zM17.713 26.505v0zM18.133 26.764v0zM18.521 27.055v0zM18.812 27.345v0zM19.103 27.636v0zM19.394 27.927v0z"></path>
</symbol>
</defs>
</svg>
